<svg xmlns="http://www.w3.org/2000/svg" version="1.1" xmlns:xlink="http://www.w3.org/1999/xlink" xmlns:svgjs="http://svgjs.com/svgjs" width="512" height="512" x="0" y="0" viewBox="0 0 206.132 206.132" style="enable-background:new 0 0 512 512" xml:space="preserve"><g><path d="M51.793 75.995h102.543a7.497 7.497 0 0 0 7.46-8.272c-1.797-17.368-10.939-32.265-24.16-41.789l9.197-14.397A7.498 7.498 0 0 0 144.55 1.18a7.5 7.5 0 0 0-10.358 2.283l-9.776 15.304a59.241 59.241 0 0 0-21.352-3.955 59.23 59.23 0 0 0-21.35 3.955L71.938 3.464A7.5 7.5 0 0 0 61.58 1.181a7.498 7.498 0 0 0-2.283 10.357l9.196 14.396C55.272 35.458 46.13 50.355 44.332 67.723a7.498 7.498 0 0 0 7.461 8.272zm30.123-40.813c.35-.153.693-.331 1.025-.542a44.072 44.072 0 0 1 20.123-4.828 44.088 44.088 0 0 1 20.142 4.837c.326.206.662.382 1.004.532 9.973 5.436 17.628 14.62 21.008 25.813H60.911c3.38-11.191 11.034-20.375 21.005-25.812zM154.336 88.94a7.5 7.5 0 0 0-7.5 7.5v52.281c0 2.248-1.899 4.147-4.147 4.147H63.441c-2.248 0-4.148-1.899-4.148-4.147V96.44a7.5 7.5 0 0 0-7.5-7.5 7.5 7.5 0 0 0-7.5 7.5v52.281c0 10.558 8.59 19.147 19.148 19.147h79.248c10.558 0 19.147-8.59 19.147-19.147V96.44a7.5 7.5 0 0 0-7.5-7.5zM35.269 88.211a7.5 7.5 0 0 0 0-15c-10 0-18.135 8.135-18.135 18.134v41.45c0 9.999 8.135 18.134 18.135 18.134a7.5 7.5 0 0 0 7.5-7.5 7.5 7.5 0 0 0-7.5-7.5 3.138 3.138 0 0 1-3.135-3.134v-41.45a3.14 3.14 0 0 1 3.135-3.134zM170.862 73.211a7.5 7.5 0 0 0 0 15 3.138 3.138 0 0 1 3.135 3.134v41.45a3.138 3.138 0 0 1-3.135 3.134 7.5 7.5 0 0 0-7.5 7.5 7.5 7.5 0 0 0 7.5 7.5c9.999 0 18.135-8.135 18.135-18.134v-41.45c0-9.999-8.135-18.134-18.135-18.134zM94.31 180.497a7.5 7.5 0 0 0-7.5 7.5 3.138 3.138 0 0 1-3.135 3.135 3.138 3.138 0 0 1-3.135-3.135 7.5 7.5 0 0 0-7.5-7.5 7.5 7.5 0 0 0-7.5 7.5c0 10 8.135 18.135 18.135 18.135s18.135-8.135 18.135-18.135c0-4.143-3.357-7.5-7.5-7.5zM133.09 180.497a7.5 7.5 0 0 0-7.5 7.5 3.138 3.138 0 0 1-3.135 3.135 3.14 3.14 0 0 1-3.137-3.135 7.5 7.5 0 0 0-7.5-7.5 7.5 7.5 0 0 0-7.5 7.5c0 10 8.136 18.135 18.137 18.135 9.999 0 18.135-8.135 18.135-18.135a7.5 7.5 0 0 0-7.5-7.5z" fill="#000000" data-original="#000000"></path></g></svg>