<svg xmlns="http://www.w3.org/2000/svg" version="1.1" xmlns:xlink="http://www.w3.org/1999/xlink" xmlns:svgjs="http://svgjs.com/svgjs" width="512" height="512" x="0" y="0" viewBox="0 0 682.667 682.667" style="enable-background:new 0 0 512 512" xml:space="preserve"><g><defs><clipPath id="a" clipPathUnits="userSpaceOnUse"><path d="M0 512h512V0H0Z" fill="#ffffff" data-original="#000000"></path></clipPath></defs><g clip-path="url(#a)" transform="matrix(1.33333 0 0 -1.33333 0 682.667)"><path d="M0 0c-7.784 2.833-11.798 11.441-8.965 19.226 2.834 7.784 11.442 11.798 19.226 8.965 7.785-2.834 11.799-11.441 8.965-19.226C16.393 1.181 7.785-2.833 0 0" style="fill-opacity:1;fill-rule:nonzero;stroke:none" transform="translate(295.368 304.987)" fill="#ffffff" data-original="#000000"></path><path d="M0 0c-7.784 2.833-11.798 11.441-8.965 19.226 2.833 7.785 11.442 11.798 19.226 8.965 7.785-2.834 11.799-11.441 8.965-19.226C16.393 1.181 7.785-2.833 0 0" style="fill-opacity:1;fill-rule:nonzero;stroke:none" transform="translate(126.224 366.55)" fill="#ffffff" data-original="#000000"></path><path d="m0 0 35.88 98.58a284.602 284.602 0 0 1-169.145 61.564c-61.556 1.682-120.908 24.284-169.144 62.564l-62.564-170.145c48.237-38.28 108.588-59.882 170.145-61.564A284.597 284.597 0 0 0-102.7-27.004" style="stroke-width:30;stroke-linecap:round;stroke-linejoin:round;stroke-miterlimit:10;stroke-dasharray:none;stroke-opacity:1" transform="translate(379.973 274.293)" fill="none" stroke="#ffffff" stroke-width="30" stroke-linecap="round" stroke-linejoin="round" stroke-miterlimit="10" stroke-dasharray="none" stroke-opacity="" data-original="#000000"></path><path d="M0 0c-5.667-15.569-22.882-23.597-38.451-17.93-15.57 5.666-23.597 22.882-17.931 38.451 5.667 15.569 22.883 23.597 38.452 17.93C-2.36 32.785 5.667 15.569 0 0Z" style="stroke-width:30;stroke-linecap:round;stroke-linejoin:round;stroke-miterlimit:10;stroke-dasharray:none;stroke-opacity:1" transform="translate(244.117 339.603)" fill="none" stroke="#ffffff" stroke-width="30" stroke-linecap="round" stroke-linejoin="round" stroke-miterlimit="10" stroke-dasharray="none" stroke-opacity="" data-original="#000000"></path><path d="M0 0c7.784 2.833 11.798 11.441 8.965 19.226-2.834 7.784-11.442 11.798-19.226 8.965-7.785-2.834-11.799-11.441-8.965-19.226C-16.393 1.18-7.785-2.833 0 0" style="fill-opacity:1;fill-rule:nonzero;stroke:none" transform="translate(216.632 117.259)" fill="#ffffff" data-original="#000000"></path><path d="M0 0c7.784 2.833 11.798 11.441 8.965 19.226-2.833 7.784-11.442 11.798-19.226 8.965-7.785-2.834-11.799-11.441-8.965-19.226C-16.393 1.181-7.785-2.833 0 0" style="fill-opacity:1;fill-rule:nonzero;stroke:none" transform="translate(385.776 178.822)" fill="#ffffff" data-original="#000000"></path><path d="M0 0a284.602 284.602 0 0 0 169.145 61.564 284.61 284.61 0 0 1 169.144 61.563l62.564-169.144c-48.237-38.28-108.588-59.882-170.145-61.564-61.558-1.682-120.908-24.284-169.145-62.564Z" style="stroke-width:30;stroke-linecap:round;stroke-linejoin:round;stroke-miterlimit:10;stroke-dasharray:none;stroke-opacity:1" transform="translate(96.147 185.144)" fill="none" stroke="#ffffff" stroke-width="30" stroke-linecap="round" stroke-linejoin="round" stroke-miterlimit="10" stroke-dasharray="none" stroke-opacity="" data-original="#000000"></path><path d="M0 0c5.667-15.569 22.882-23.597 38.451-17.93 15.57 5.666 23.597 22.882 17.931 38.451-5.667 15.569-22.883 23.597-38.452 17.93C2.36 32.785-5.667 15.569 0 0Z" style="stroke-width:30;stroke-linecap:round;stroke-linejoin:round;stroke-miterlimit:10;stroke-dasharray:none;stroke-opacity:1" transform="translate(267.883 151.875)" fill="none" stroke="#ffffff" stroke-width="30" stroke-linecap="round" stroke-linejoin="round" stroke-miterlimit="10" stroke-dasharray="none" stroke-opacity="" data-original="#000000"></path></g></g></svg>