<svg xmlns="http://www.w3.org/2000/svg" version="1.1" xmlns:xlink="http://www.w3.org/1999/xlink" xmlns:svgjs="http://svgjs.com/svgjs" width="512" height="512" x="0" y="0" viewBox="0 0 512.001 512.001" style="enable-background:new 0 0 512 512" xml:space="preserve"><g><path d="m412.492 396.091-63.679-63.681c-17.586-17.586-46.05-17.589-63.638 0l-21.213 21.213c-5.849 5.847-15.365 5.848-21.211.002l-84.348-84.383c-5.862-5.862-5.863-15.349 0-21.213l21.213-21.213c17.545-17.545 17.545-46.093 0-63.638L115.978 99.54c-17.273-17.274-45.599-17.5-63.145-.501l-20.858 20.207c-42.159 40.842-42.686 108.157-1.188 149.657l212.299 212.335c41.453 41.453 108.812 40.966 149.65-1.179l20.253-20.902c16.979-17.522 16.756-45.813-.497-63.066zM73.707 120.585c5.751-5.571 15.394-5.497 21.059.167l63.639 63.639c5.848 5.849 5.848 15.365 0 21.213l-10.607 10.607-85.028-85.028 10.937-10.598zM264.3 460.025 52.001 247.69c-25.883-25.884-28.706-65.539-9.541-94.392l85.93 85.93c-7.885 16.473-5.249 37.177 8.799 51.225l84.348 84.383c13.827 13.828 34.484 16.749 51.207 8.782l85.947 85.947c-28.882 19.184-68.544 16.307-94.391-9.54zm127.146-21.745-10.636 10.977-85.028-85.027 10.607-10.607c5.849-5.849 15.365-5.848 21.213 0l63.68 63.68c5.64 5.641 5.716 15.248.164 20.977zM490.283 331.577l-7.51 3.755c19.029-33.536 29.217-71.471 29.217-110.336C511.99 100.64 411.361 0 286.995 0c-54.817 0-107.793 20.249-149.169 57.015-6.192 5.503-6.751 14.984-1.249 21.177 5.504 6.193 14.984 6.751 21.177 1.249C193.633 47.559 239.532 30 286.995 30c107.521 0 194.996 87.475 194.996 194.996 0 36.696-10.504 72.453-29.999 103.37v-13.372c0-8.284-6.716-15-15-15s-15 6.716-15 15v59.999c0 11.186 11.797 18.371 21.708 13.417l59.999-29.999c7.41-3.705 10.413-12.715 6.708-20.125s-12.714-10.414-20.124-6.709z" fill="#ffffff" data-original="#000000"></path><path d="M316.994 239.995h-29.998l33.509-44.677.073-.097 2.432-3.243.024-.032c5.862-7.83 8.96-17.149 8.96-26.949 0-24.813-20.187-44.999-44.999-44.999s-44.999 20.187-44.999 44.999c0 8.284 6.716 15 15 15 8.284 0 15-6.716 15-15 0-8.271 6.729-15 15-15s15 6.729 15 15c0 3.268-1.029 6.37-2.978 8.973-.625 1-53.813 71.466-55.023 73.567-5.594 9.724 1.277 22.459 13.007 22.459h59.994c8.284 0 15-6.716 15-15-.002-8.285-6.718-15.001-15.002-15.001z" fill="#ffffff" data-original="#000000"></path><path d="M406.993 179.996c-8.284 0-15 6.716-15 15v15h-24.188l23.419-70.255c2.619-7.86-1.628-16.354-9.487-18.974-7.863-2.618-16.354 1.628-18.974 9.487l-29.999 89.998c-3.232 9.698 3.995 19.743 14.23 19.743h44.999v15c0 8.284 6.716 15 15 15 8.284 0 15-6.716 15-15v-59.999c-.001-8.284-6.717-15-15-15z" fill="#ffffff" data-original="#000000"></path></g></svg>