<?xml version="1.0" encoding="utf-8"?><svg viewBox="0 0 512 512" xmlns="http://www.w3.org/2000/svg" xmlns:xlink="http://www.w3.org/1999/xlink"><style>:root>svg{display:none}:root>svg:target{display:block}</style><svg viewBox="0 0 206.132 206.132" style="enable-background:new 0 0 512 512" xml:space="preserve" id="android" xmlns="http://www.w3.org/2000/svg"><path d="M51.793 75.995h102.543a7.497 7.497 0 0 0 7.46-8.272c-1.797-17.368-10.939-32.265-24.16-41.789l9.197-14.397A7.498 7.498 0 0 0 144.55 1.18a7.5 7.5 0 0 0-10.358 2.283l-9.776 15.304a59.241 59.241 0 0 0-21.352-3.955 59.23 59.23 0 0 0-21.35 3.955L71.938 3.464A7.5 7.5 0 0 0 61.58 1.181a7.498 7.498 0 0 0-2.283 10.357l9.196 14.396C55.272 35.458 46.13 50.355 44.332 67.723a7.498 7.498 0 0 0 7.461 8.272zm30.123-40.813c.35-.153.693-.331 1.025-.542a44.072 44.072 0 0 1 20.123-4.828 44.088 44.088 0 0 1 20.142 4.837c.326.206.662.382 1.004.532 9.973 5.436 17.628 14.62 21.008 25.813H60.911c3.38-11.191 11.034-20.375 21.005-25.812zm72.42 53.758a7.5 7.5 0 0 0-7.5 7.5v52.281c0 2.248-1.899 4.147-4.147 4.147H63.441c-2.248 0-4.148-1.899-4.148-4.147V96.44a7.5 7.5 0 0 0-7.5-7.5 7.5 7.5 0 0 0-7.5 7.5v52.281c0 10.558 8.59 19.147 19.148 19.147h79.248c10.558 0 19.147-8.59 19.147-19.147V96.44a7.5 7.5 0 0 0-7.5-7.5zm-119.067-.729a7.5 7.5 0 0 0 0-15c-10 0-18.135 8.135-18.135 18.134v41.45c0 9.999 8.135 18.134 18.135 18.134a7.5 7.5 0 0 0 7.5-7.5 7.5 7.5 0 0 0-7.5-7.5 3.138 3.138 0 0 1-3.135-3.134v-41.45a3.14 3.14 0 0 1 3.135-3.134zm135.593-15a7.5 7.5 0 0 0 0 15 3.138 3.138 0 0 1 3.135 3.134v41.45a3.138 3.138 0 0 1-3.135 3.134 7.5 7.5 0 0 0-7.5 7.5 7.5 7.5 0 0 0 7.5 7.5c9.999 0 18.135-8.135 18.135-18.134v-41.45c0-9.999-8.135-18.134-18.135-18.134zM94.31 180.497a7.5 7.5 0 0 0-7.5 7.5 3.138 3.138 0 0 1-3.135 3.135 3.138 3.138 0 0 1-3.135-3.135 7.5 7.5 0 0 0-7.5-7.5 7.5 7.5 0 0 0-7.5 7.5c0 10 8.135 18.135 18.135 18.135s18.135-8.135 18.135-18.135c0-4.143-3.357-7.5-7.5-7.5zm38.78 0a7.5 7.5 0 0 0-7.5 7.5 3.138 3.138 0 0 1-3.135 3.135 3.14 3.14 0 0 1-3.137-3.135 7.5 7.5 0 0 0-7.5-7.5 7.5 7.5 0 0 0-7.5 7.5c0 10 8.136 18.135 18.137 18.135 9.999 0 18.135-8.135 18.135-18.135a7.5 7.5 0 0 0-7.5-7.5z" data-original="#000000"/></svg><svg viewBox="0 0 330 330" style="enable-background:new 0 0 512 512" xml:space="preserve" id="arrow" xmlns="http://www.w3.org/2000/svg"><path d="M15 180h263.787l-49.394 49.394c-5.858 5.857-5.858 15.355 0 21.213C232.322 253.535 236.161 255 240 255s7.678-1.465 10.606-4.394l75-75c5.858-5.857 5.858-15.355 0-21.213l-75-75c-5.857-5.857-15.355-5.857-21.213 0-5.858 5.857-5.858 15.355 0 21.213L278.787 150H15c-8.284 0-15 6.716-15 15s6.716 15 15 15z" fill="#fff" data-original="#000000"/></svg><svg viewBox="0 0 682.667 682.667" style="enable-background:new 0 0 512 512" xml:space="preserve" id="auto" xmlns="http://www.w3.org/2000/svg"><defs><clipPath id="aca" clipPathUnits="userSpaceOnUse"><path d="M0 512h512V0H0Z" fill="#fff" data-original="#000000"/></clipPath></defs><g clip-path="url(#aca)" transform="matrix(1.33333 0 0 -1.33333 0 682.667)" fill="none" stroke="#fff" stroke-width="30" stroke-linecap="round" stroke-linejoin="round" stroke-miterlimit="10"><path d="M0 0a32.11 32.11 0 0 1-9.415 22.722 32.122 32.122 0 0 1-22.719 9.411h-417.732a32.122 32.122 0 0 1-22.719-9.411A32.11 32.11 0 0 1-482 0v-224.934a32.106 32.106 0 0 1 9.415-22.721 32.118 32.118 0 0 1 22.719-9.411h417.732a32.118 32.118 0 0 1 22.719 9.411A32.106 32.106 0 0 1 0-224.934z" style="stroke-width:30;stroke-linecap:round;stroke-linejoin:round;stroke-miterlimit:10;stroke-dasharray:none;stroke-opacity:1" transform="translate(497 368.467)" data-original="#000000"/><path d="M0 0v68.3a32.112 32.112 0 0 0 9.407 22.71 32.126 32.126 0 0 0 22.71 9.407h.016c17.746 0 32.134-14.387 32.134-32.134V0" style="stroke-width:30;stroke-linecap:round;stroke-linejoin:round;stroke-miterlimit:10;stroke-dasharray:none;stroke-opacity:1" transform="translate(63.2 207.8)" data-original="#000000"/><path d="M0 0v-68.3a32.112 32.112 0 0 1 9.407-22.71 32.126 32.126 0 0 1 22.71-9.407h.016c17.746 0 32.134 14.387 32.134 32.134V0" style="stroke-width:30;stroke-linecap:round;stroke-linejoin:round;stroke-miterlimit:10;stroke-dasharray:none;stroke-opacity:1" transform="translate(175.667 304.2)" data-original="#000000"/><path d="M0 0a32.116 32.116 0 0 1-32.117-32.117v-40.199A32.12 32.12 0 0 1 0-104.434h.017a32.117 32.117 0 0 1 22.717 9.413A32.1 32.1 0 0 1 32.149-72.3v40.166a32.103 32.103 0 0 1-9.415 22.722A32.12 32.12 0 0 1 .017 0Z" style="stroke-width:30;stroke-linecap:round;stroke-linejoin:round;stroke-miterlimit:10;stroke-dasharray:none;stroke-opacity:1" transform="translate(416.65 308.217)" data-original="#000000"/><path d="M0 0h64.267" style="stroke-width:30;stroke-linecap:round;stroke-linejoin:round;stroke-miterlimit:10;stroke-dasharray:none;stroke-opacity:1" transform="translate(280.1 304.2)" data-original="#000000"/><path d="M0 0v-96.4" style="stroke-width:30;stroke-linecap:round;stroke-linejoin:round;stroke-miterlimit:10;stroke-dasharray:none;stroke-opacity:1" transform="translate(312.233 304.2)" data-original="#000000"/><path d="M0 0h64.267" style="stroke-width:30;stroke-linecap:round;stroke-linejoin:round;stroke-miterlimit:10;stroke-dasharray:none;stroke-opacity:1" transform="translate(63.2 239.934)" data-original="#000000"/></g></svg><svg viewBox="0 0 682.667 682.667" style="enable-background:new 0 0 512 512" xml:space="preserve" id="bluetooth" xmlns="http://www.w3.org/2000/svg"><defs><clipPath id="ada" clipPathUnits="userSpaceOnUse"><path d="M0 512h512V0H0Z" fill="#FFF" data-original="#FFFFFF"/></clipPath></defs><path d="m0 0-66.327 60.311V-60.311Z" style="stroke-width:30;stroke-linecap:round;stroke-linejoin:round;stroke-miterlimit:10;stroke-dasharray:none;stroke-opacity:1" transform="matrix(1.33333 0 0 -1.33333 260.171 421.747)" fill="none" stroke="#FFF" stroke-width="30" stroke-linecap="round" stroke-linejoin="round" stroke-miterlimit="10" data-original="#FFFFFF"/><path d="m0 0-66.327 60.311V-60.311Z" style="stroke-width:30;stroke-linecap:round;stroke-linejoin:round;stroke-miterlimit:10;stroke-dasharray:none;stroke-opacity:1" transform="matrix(1.33333 0 0 -1.33333 260.171 260.92)" fill="none" stroke="#FFF" stroke-width="30" stroke-linecap="round" stroke-linejoin="round" stroke-miterlimit="10" data-original="#FFFFFF"/><path d="m0 0-52.938-53.835M0 0l-52.938 53.835" style="stroke-width:30;stroke-linecap:round;stroke-linejoin:round;stroke-miterlimit:10;stroke-dasharray:none;stroke-opacity:1" transform="matrix(1.33333 0 0 -1.33333 171.735 341.333)" fill="none" stroke="#FFF" stroke-width="30" stroke-linecap="round" stroke-linejoin="round" stroke-miterlimit="10" data-original="#FFFFFF"/><g clip-path="url(#ada)" transform="matrix(1.33333 0 0 -1.33333 0 682.667)" fill="none" stroke="#FFF" stroke-width="30" stroke-linecap="round" stroke-linejoin="round" stroke-miterlimit="10"><path d="M0 0v0c-65.167 0-117.996 52.828-117.996 117.996v154.361c0 65.168 52.829 117.996 117.996 117.996s117.996-52.828 117.996-117.996V117.996C117.996 52.828 65.167 0 0 0Z" style="stroke-width:30;stroke-linecap:round;stroke-linejoin:round;stroke-miterlimit:10;stroke-dasharray:none;stroke-opacity:1" transform="translate(132.996 60.824)" data-original="#FFFFFF"/><path d="M0 0c56.644 45.995 92.91 116.157 92.91 194.639 0 77.973-35.791 147.74-91.803 193.748" style="stroke-width:30;stroke-linecap:round;stroke-linejoin:round;stroke-miterlimit:10;stroke-dasharray:none;stroke-opacity:1" transform="translate(404.09 61.807)" data-original="#FFFFFF"/><path d="M0 0c39.944 32.435 65.519 81.912 65.519 137.257 0 54.986-25.24 104.184-64.739 136.628" style="stroke-width:30;stroke-linecap:round;stroke-linejoin:round;stroke-miterlimit:10;stroke-dasharray:none;stroke-opacity:1" transform="translate(357.584 119.189)" data-original="#FFFFFF"/><path d="M0 0c23.241 18.859 38.1 47.648 38.1 79.911 0 32.053-14.663 60.68-37.645 79.545" style="stroke-width:30;stroke-linecap:round;stroke-linejoin:round;stroke-miterlimit:10;stroke-dasharray:none;stroke-opacity:1" transform="translate(311.106 176.535)" data-original="#FFFFFF"/></g></svg><svg viewBox="0 0 682.667 682.667" style="enable-background:new 0 0 512 512" xml:space="preserve" id="buy" xmlns="http://www.w3.org/2000/svg"><defs><clipPath id="aea" clipPathUnits="userSpaceOnUse"><path d="M0 512h512V0H0Z" fill="#fff" data-original="#000000"/></clipPath></defs><g clip-path="url(#aea)" transform="matrix(1.33333 0 0 -1.33333 0 682.667)"><path d="M0 0c-7.784 2.833-11.798 11.441-8.965 19.226 2.834 7.784 11.442 11.798 19.226 8.965 7.785-2.834 11.799-11.441 8.965-19.226C16.393 1.181 7.785-2.833 0 0" style="fill-opacity:1;fill-rule:nonzero;stroke:none" transform="translate(295.368 304.987)" fill="#fff" data-original="#000000"/><path d="M0 0c-7.784 2.833-11.798 11.441-8.965 19.226 2.833 7.785 11.442 11.798 19.226 8.965 7.785-2.834 11.799-11.441 8.965-19.226C16.393 1.181 7.785-2.833 0 0" style="fill-opacity:1;fill-rule:nonzero;stroke:none" transform="translate(126.224 366.55)" fill="#fff" data-original="#000000"/><path d="m0 0 35.88 98.58a284.602 284.602 0 0 1-169.145 61.564c-61.556 1.682-120.908 24.284-169.144 62.564l-62.564-170.145c48.237-38.28 108.588-59.882 170.145-61.564A284.597 284.597 0 0 0-102.7-27.004" style="stroke-width:30;stroke-linecap:round;stroke-linejoin:round;stroke-miterlimit:10;stroke-dasharray:none;stroke-opacity:1" transform="translate(379.973 274.293)" fill="none" stroke="#fff" stroke-width="30" stroke-linecap="round" stroke-linejoin="round" stroke-miterlimit="10" data-original="#000000"/><path d="M0 0c-5.667-15.569-22.882-23.597-38.451-17.93-15.57 5.666-23.597 22.882-17.931 38.451 5.667 15.569 22.883 23.597 38.452 17.93C-2.36 32.785 5.667 15.569 0 0Z" style="stroke-width:30;stroke-linecap:round;stroke-linejoin:round;stroke-miterlimit:10;stroke-dasharray:none;stroke-opacity:1" transform="translate(244.117 339.603)" fill="none" stroke="#fff" stroke-width="30" stroke-linecap="round" stroke-linejoin="round" stroke-miterlimit="10" data-original="#000000"/><path d="M0 0c7.784 2.833 11.798 11.441 8.965 19.226-2.834 7.784-11.442 11.798-19.226 8.965-7.785-2.834-11.799-11.441-8.965-19.226C-16.393 1.18-7.785-2.833 0 0" style="fill-opacity:1;fill-rule:nonzero;stroke:none" transform="translate(216.632 117.259)" fill="#fff" data-original="#000000"/><path d="M0 0c7.784 2.833 11.798 11.441 8.965 19.226-2.833 7.784-11.442 11.798-19.226 8.965-7.785-2.834-11.799-11.441-8.965-19.226C-16.393 1.181-7.785-2.833 0 0" style="fill-opacity:1;fill-rule:nonzero;stroke:none" transform="translate(385.776 178.822)" fill="#fff" data-original="#000000"/><path d="M0 0a284.602 284.602 0 0 0 169.145 61.564 284.61 284.61 0 0 1 169.144 61.563l62.564-169.144c-48.237-38.28-108.588-59.882-170.145-61.564-61.558-1.682-120.908-24.284-169.145-62.564Z" style="stroke-width:30;stroke-linecap:round;stroke-linejoin:round;stroke-miterlimit:10;stroke-dasharray:none;stroke-opacity:1" transform="translate(96.147 185.144)" fill="none" stroke="#fff" stroke-width="30" stroke-linecap="round" stroke-linejoin="round" stroke-miterlimit="10" data-original="#000000"/><path d="M0 0c5.667-15.569 22.882-23.597 38.451-17.93 15.57 5.666 23.597 22.882 17.931 38.451-5.667 15.569-22.883 23.597-38.452 17.93C2.36 32.785-5.667 15.569 0 0Z" style="stroke-width:30;stroke-linecap:round;stroke-linejoin:round;stroke-miterlimit:10;stroke-dasharray:none;stroke-opacity:1" transform="translate(267.883 151.875)" fill="none" stroke="#fff" stroke-width="30" stroke-linecap="round" stroke-linejoin="round" stroke-miterlimit="10" data-original="#000000"/></g></svg><svg viewBox="0 0 513.854 513.854" style="enable-background:new 0 0 512 512" xml:space="preserve" id="check" xmlns="http://www.w3.org/2000/svg"><g fill="none" stroke="#fff" stroke-width="30" stroke-linecap="round" stroke-linejoin="round" stroke-miterlimit="10"><circle cx="331.467" cy="182.055" r="167.055" style="stroke-width:30;stroke-linecap:round;stroke-linejoin:round;stroke-miterlimit:10" data-original="#000000"/><path d="m404.875 137.054-93.818 93.818-56.182-56.183m-120.15 145.399 59.373 59.373L87.001 486.557c-16.395 16.395-42.977 16.395-59.373 0h0c-16.395-16.395-16.395-42.977 0-59.373l107.097-107.096zm-58.542 70.737 44.441 44.441m43.787-85.492 38.263-38.262" style="stroke-width:30;stroke-linecap:round;stroke-linejoin:round;stroke-miterlimit:10" data-original="#000000"/></g></svg><svg viewBox="0 0 682.667 682.667" style="enable-background:new 0 0 512 512" xml:space="preserve" id="delivery" xmlns="http://www.w3.org/2000/svg"><defs><clipPath id="aga" clipPathUnits="userSpaceOnUse"><path d="M0 512h512V0H0Z" fill="#fff" data-original="#000000"/></clipPath></defs><path d="M0 0h-161.853" style="stroke-width:30;stroke-linecap:round;stroke-linejoin:round;stroke-miterlimit:10;stroke-dasharray:none;stroke-opacity:1" transform="matrix(1.33333 0 0 -1.33333 485.454 494.045)" fill="none" stroke="#fff" stroke-width="30" stroke-linecap="round" stroke-linejoin="round" stroke-miterlimit="10" data-original="#000000"/><g clip-path="url(#aga)" transform="matrix(1.33333 0 0 -1.33333 0 682.667)" fill="none" stroke="#fff" stroke-width="30" stroke-linecap="round" stroke-linejoin="round" stroke-miterlimit="10"><path d="M0 0h34.359v104.324l-86.048 88.909h-70.409V.947" style="stroke-width:30;stroke-linecap:round;stroke-linejoin:round;stroke-miterlimit:10;stroke-dasharray:none;stroke-opacity:1" transform="translate(462.64 141.466)" data-original="#000000"/><path d="M0 0h-156.463" style="stroke-width:30;stroke-linecap:round;stroke-linejoin:round;stroke-miterlimit:10;stroke-dasharray:none;stroke-opacity:1" transform="translate(497 245.79)" data-original="#000000"/><path d="M0 0c18.338 18.339 48.068 18.339 66.406 0 18.337-18.338 18.337-48.071 0-66.409-18.338-18.339-48.068-18.339-66.406 0C-18.338-48.071-18.338-18.338 0 0Z" style="stroke-width:30;stroke-linecap:round;stroke-linejoin:round;stroke-miterlimit:10;stroke-dasharray:none;stroke-opacity:1" transform="translate(120.424 177.748)" data-original="#000000"/><path d="M0 0c18.338 18.339 48.068 18.339 66.406 0 18.338-18.338 18.338-48.071 0-66.409-18.338-18.339-48.068-18.339-66.406 0C-18.337-48.071-18.337-18.338 0 0Z" style="stroke-width:30;stroke-linecap:round;stroke-linejoin:round;stroke-miterlimit:10;stroke-dasharray:none;stroke-opacity:1" transform="translate(382.151 177.748)" data-original="#000000"/><path d="M0 0v-272.784h42.369" style="stroke-width:30;stroke-linecap:round;stroke-linejoin:round;stroke-miterlimit:10;stroke-dasharray:none;stroke-opacity:1" transform="translate(62.36 414.415)" data-original="#000000"/><path d="M0 0v79.843h-278.604" style="stroke-width:30;stroke-linecap:round;stroke-linejoin:round;stroke-miterlimit:10;stroke-dasharray:none;stroke-opacity:1" transform="translate(340.964 334.573)" data-original="#000000"/><path d="M0 0h-104.076" style="stroke-width:30;stroke-linecap:round;stroke-linejoin:round;stroke-miterlimit:10;stroke-dasharray:none;stroke-opacity:1" transform="translate(166.435 414.415)" data-original="#000000"/><path d="M0 0h-130.431" style="stroke-width:30;stroke-linecap:round;stroke-linejoin:round;stroke-miterlimit:10;stroke-dasharray:none;stroke-opacity:1" transform="translate(166.435 354.402)" data-original="#000000"/><path d="M0 0h-140.433" style="stroke-width:30;stroke-linecap:round;stroke-linejoin:round;stroke-miterlimit:10;stroke-dasharray:none;stroke-opacity:1" transform="translate(155.433 294.388)" data-original="#000000"/></g></svg><svg viewBox="0 0 682.667 682.667" style="enable-background:new 0 0 512 512" xml:space="preserve" id="detection" xmlns="http://www.w3.org/2000/svg"><defs><clipPath id="aha" clipPathUnits="userSpaceOnUse"><path d="M0 512h512V0H0Z" fill="#fff" data-original="#000000"/></clipPath></defs><g clip-path="url(#aha)" transform="matrix(1.33333 0 0 -1.33333 0 682.667)" fill="none" stroke="#fff" stroke-width="30" stroke-linecap="round" stroke-linejoin="round" stroke-miterlimit="10"><path d="M0 0c40.829-31.777 92.146-50.713 147.892-50.713 133.1 0 241 107.9 241 241 0 133.101-107.9 241-241 241-133.101 0-241-107.899-241-241 0-55.745 18.935-107.062 50.712-147.891" style="stroke-width:30;stroke-linecap:round;stroke-linejoin:round;stroke-miterlimit:10;stroke-dasharray:none;stroke-opacity:1" transform="translate(108.108 65.713)" data-original="#000000"/><path d="M0 0c11.716 11.716 30.711 11.716 42.427 0 11.716-11.716 11.716-30.711 0-42.427-11.716-11.716-30.711-11.716-42.427 0C-11.716-30.711-11.716-11.716 0 0Z" style="stroke-width:30;stroke-linecap:round;stroke-linejoin:round;stroke-miterlimit:10;stroke-dasharray:none;stroke-opacity:1" transform="translate(65.081 107.508)" data-original="#000000"/><path d="M0 0c44.183 0 80-35.817 80-80s-35.817-80-80-80-80 35.817-80 80c0 22.092 8.954 42.091 23.432 56.568" style="stroke-width:30;stroke-linecap:round;stroke-linejoin:round;stroke-miterlimit:10;stroke-dasharray:none;stroke-opacity:1" transform="translate(256 336)" data-original="#000000"/><path d="M0 0v130h240" style="stroke-width:30;stroke-linecap:round;stroke-linejoin:round;stroke-miterlimit:10;stroke-dasharray:none;stroke-opacity:1" transform="translate(256 126)" data-original="#000000"/><path d="M0 0v-51" style="stroke-width:30;stroke-linecap:round;stroke-linejoin:round;stroke-miterlimit:10;stroke-dasharray:none;stroke-opacity:1" transform="translate(256 66)" data-original="#000000"/><path d="M0 0v-241h-241" style="stroke-width:30;stroke-linecap:round;stroke-linejoin:round;stroke-miterlimit:10;stroke-dasharray:none;stroke-opacity:1" transform="translate(256 497)" data-original="#000000"/><path d="m0 0 170.413-170.412" style="stroke-width:30;stroke-linecap:round;stroke-linejoin:round;stroke-miterlimit:10;stroke-dasharray:none;stroke-opacity:1" transform="translate(85.587 426.412)" data-original="#000000"/><path d="M0 0c17.494-25.65 27.728-56.647 27.728-90.037 0-78.157-56.044-143.215-130.135-157.205" style="stroke-width:30;stroke-linecap:round;stroke-linejoin:round;stroke-miterlimit:10;stroke-dasharray:none;stroke-opacity:1" transform="translate(388.272 346.037)" data-original="#000000"/><path d="M0 0c-25.65 17.494-56.647 27.728-90.037 27.728" style="stroke-width:30;stroke-linecap:round;stroke-linejoin:round;stroke-miterlimit:10;stroke-dasharray:none;stroke-opacity:1" transform="translate(346.037 388.272)" data-original="#000000"/><path d="M0 0c-28.955-28.954-46.863-68.954-46.863-113.137 0-78.157 56.044-143.215 130.134-157.205" style="stroke-width:30;stroke-linecap:round;stroke-linejoin:round;stroke-miterlimit:10;stroke-dasharray:none;stroke-opacity:1" transform="translate(142.863 369.137)" data-original="#000000"/><path d="M0 0c11.716 11.716 30.711 11.716 42.427 0 11.716-11.716 11.716-30.711 0-42.427-11.716-11.716-30.711-11.716-42.427 0C-11.716-30.711-11.716-11.716 0 0Z" style="stroke-width:30;stroke-linecap:round;stroke-linejoin:round;stroke-miterlimit:10;stroke-dasharray:none;stroke-opacity:1" transform="translate(347.924 390.35)" data-original="#000000"/><path d="M0 0c0 16.568-13.432 30-30 30-16.568 0-30-13.432-30-30 0-16.568 13.432-30 30-30C-13.432-30 0-16.568 0 0z" style="stroke-width:30;stroke-linecap:round;stroke-linejoin:round;stroke-miterlimit:10;stroke-dasharray:none;stroke-opacity:1" transform="translate(286 96)" data-original="#000000"/></g></svg><svg viewBox="0 0 512.001 512.001" style="enable-background:new 0 0 512 512" xml:space="preserve" id="fulltime" xmlns="http://www.w3.org/2000/svg"><g fill="#fff"><path d="m412.492 396.091-63.679-63.681c-17.586-17.586-46.05-17.589-63.638 0l-21.213 21.213c-5.849 5.847-15.365 5.848-21.211.002l-84.348-84.383c-5.862-5.862-5.863-15.349 0-21.213l21.213-21.213c17.545-17.545 17.545-46.093 0-63.638L115.978 99.54c-17.273-17.274-45.599-17.5-63.145-.501l-20.858 20.207c-42.159 40.842-42.686 108.157-1.188 149.657l212.299 212.335c41.453 41.453 108.812 40.966 149.65-1.179l20.253-20.902c16.979-17.522 16.756-45.813-.497-63.066zM73.707 120.585c5.751-5.571 15.394-5.497 21.059.167l63.639 63.639c5.848 5.849 5.848 15.365 0 21.213l-10.607 10.607-85.028-85.028 10.937-10.598zM264.3 460.025 52.001 247.69c-25.883-25.884-28.706-65.539-9.541-94.392l85.93 85.93c-7.885 16.473-5.249 37.177 8.799 51.225l84.348 84.383c13.827 13.828 34.484 16.749 51.207 8.782l85.947 85.947c-28.882 19.184-68.544 16.307-94.391-9.54zm127.146-21.745-10.636 10.977-85.028-85.027 10.607-10.607c5.849-5.849 15.365-5.848 21.213 0l63.68 63.68c5.64 5.641 5.716 15.248.164 20.977zm98.837-106.703-7.51 3.755c19.029-33.536 29.217-71.471 29.217-110.336C511.99 100.64 411.361 0 286.995 0c-54.817 0-107.793 20.249-149.169 57.015-6.192 5.503-6.751 14.984-1.249 21.177 5.504 6.193 14.984 6.751 21.177 1.249C193.633 47.559 239.532 30 286.995 30c107.521 0 194.996 87.475 194.996 194.996 0 36.696-10.504 72.453-29.999 103.37v-13.372c0-8.284-6.716-15-15-15s-15 6.716-15 15v59.999c0 11.186 11.797 18.371 21.708 13.417l59.999-29.999c7.41-3.705 10.413-12.715 6.708-20.125s-12.714-10.414-20.124-6.709z" data-original="#000000"/><path d="M316.994 239.995h-29.998l33.509-44.677.073-.097 2.432-3.243.024-.032c5.862-7.83 8.96-17.149 8.96-26.949 0-24.813-20.187-44.999-44.999-44.999s-44.999 20.187-44.999 44.999c0 8.284 6.716 15 15 15 8.284 0 15-6.716 15-15 0-8.271 6.729-15 15-15s15 6.729 15 15c0 3.268-1.029 6.37-2.978 8.973-.625 1-53.813 71.466-55.023 73.567-5.594 9.724 1.277 22.459 13.007 22.459h59.994c8.284 0 15-6.716 15-15-.002-8.285-6.718-15.001-15.002-15.001z" data-original="#000000"/><path d="M406.993 179.996c-8.284 0-15 6.716-15 15v15h-24.188l23.419-70.255c2.619-7.86-1.628-16.354-9.487-18.974-7.863-2.618-16.354 1.628-18.974 9.487l-29.999 89.998c-3.232 9.698 3.995 19.743 14.23 19.743h44.999v15c0 8.284 6.716 15 15 15 8.284 0 15-6.716 15-15v-59.999c-.001-8.284-6.717-15-15-15z" data-original="#000000"/></g></svg><svg viewBox="0 0 682.667 682.667" style="enable-background:new 0 0 512 512" xml:space="preserve" id="gps" xmlns="http://www.w3.org/2000/svg"><defs><clipPath id="aja" clipPathUnits="userSpaceOnUse"><path d="M0 512h512V0H0Z" fill="#FFF" data-original="#FFFFFF"/></clipPath><clipPath id="ajb" clipPathUnits="userSpaceOnUse"><path d="M0 512h512V0H0Z" fill="#FFF" data-original="#FFFFFF"/></clipPath></defs><g clip-path="url(#aja)" transform="matrix(1.33333 0 0 -1.33333 0 682.667)"><path d="M0 0h84.917l60-211h-482l60 211h84.917" style="stroke-width:30;stroke-linecap:round;stroke-linejoin:round;stroke-miterlimit:10;stroke-dasharray:none;stroke-opacity:1" transform="translate(352.083 226)" fill="none" stroke="#FFF" stroke-width="30" stroke-linecap="round" stroke-linejoin="round" stroke-miterlimit="10" data-original="#FFFFFF"/></g><path d="M0 0h60" style="stroke-width:30;stroke-linecap:round;stroke-linejoin:round;stroke-miterlimit:10;stroke-dasharray:none;stroke-opacity:1" transform="matrix(1.33333 0 0 -1.33333 141.333 581.333)" fill="none" stroke="#FFF" stroke-width="30" stroke-linecap="round" stroke-linejoin="round" stroke-miterlimit="10" data-original="#FFFFFF"/><path d="M0 0h61" style="stroke-width:30;stroke-linecap:round;stroke-linejoin:round;stroke-miterlimit:10;stroke-dasharray:none;stroke-opacity:1" transform="matrix(1.33333 0 0 -1.33333 461.333 581.333)" fill="none" stroke="#FFF" stroke-width="30" stroke-linecap="round" stroke-linejoin="round" stroke-miterlimit="10" data-original="#FFFFFF"/><path d="M0 0h30l30-30" style="stroke-width:30;stroke-linecap:round;stroke-linejoin:round;stroke-miterlimit:10;stroke-dasharray:none;stroke-opacity:1" transform="matrix(1.33333 0 0 -1.33333 141.333 461.333)" fill="none" stroke="#FFF" stroke-width="30" stroke-linecap="round" stroke-linejoin="round" stroke-miterlimit="10" data-original="#FFFFFF"/><path d="M0 0h-31l-30-30" style="stroke-width:30;stroke-linecap:round;stroke-linejoin:round;stroke-miterlimit:10;stroke-dasharray:none;stroke-opacity:1" transform="matrix(1.33333 0 0 -1.33333 542.667 461.333)" fill="none" stroke="#FFF" stroke-width="30" stroke-linecap="round" stroke-linejoin="round" stroke-miterlimit="10" data-original="#FFFFFF"/><g clip-path="url(#ajb)" transform="matrix(1.33333 0 0 -1.33333 0 682.667)" fill="none" stroke="#FFF" stroke-width="30" stroke-linecap="round" stroke-linejoin="round" stroke-miterlimit="10"><path d="M0 0c0-33.137-26.863-60-60-60s-60 26.863-60 60 26.863 60 60 60S0 33.137 0 0Z" style="stroke-width:30;stroke-linecap:round;stroke-linejoin:round;stroke-miterlimit:10;stroke-dasharray:none;stroke-opacity:1" transform="translate(316 346)" data-original="#FFFFFF"/><path d="M0 0h90" style="stroke-width:30;stroke-linecap:round;stroke-linejoin:round;stroke-miterlimit:10;stroke-dasharray:none;stroke-opacity:1" transform="translate(211 106)" data-original="#FFFFFF"/><path d="m0 0-117.156 146.319C-137.709 171.988-150 204.559-150 240c0 82.843 67.157 151 150 151s150-68.157 150-151c0-35.441-12.291-68.012-32.844-93.681L0 0" style="stroke-width:30;stroke-linecap:round;stroke-linejoin:round;stroke-miterlimit:10;stroke-dasharray:none;stroke-opacity:1" transform="translate(256 106)" data-original="#FFFFFF"/></g></svg><svg viewBox="0 0 682.667 682.667" style="enable-background:new 0 0 512 512" xml:space="preserve" id="guarranty" xmlns="http://www.w3.org/2000/svg"><defs><clipPath id="akb" clipPathUnits="userSpaceOnUse"><path d="M0 512h512V0H0Z" fill="#fff" data-original="#000000"/></clipPath></defs><mask id="aka"><rect width="100%" height="100%" fill="#fff" data-original="#ffffff"/></mask><g mask="url(#aka)"><g clip-path="url(#akb)" transform="matrix(1.33333 0 0 -1.33333 0 682.667)" fill="none" stroke="#fff" stroke-width="30" stroke-miterlimit="10"><path d="M0 0a533.882 533.882 0 0 0-.474 16.345C-.777 36.82-16.885 53.529-37.33 54.671c-62.529 3.493-111.431 24.292-152.737 64.553-6.912 6.336-17.279 6.336-24.191 0-41.306-40.261-90.208-61.06-152.737-64.553-20.445-1.142-36.553-17.851-36.857-38.325A530.642 530.642 0 0 0-404.325 0c-2.298-120.663-5.743-286.035 194.956-356.018a22.014 22.014 0 0 1 2.942-.801l.01-.002a21.72 21.72 0 0 1 8.509 0c1.002.2 1.996.47 2.961.807C5.17-286.031 2.298-121.235 0 0Z" style="stroke-width:30;stroke-linecap:butt;stroke-linejoin:miter;stroke-miterlimit:10;stroke-dasharray:none;stroke-opacity:1" transform="translate(458.172 372.633)" data-original="#000000"/><path d="M0 0c0-62.082-50.327-112.409-112.408-112.409S-224.816-62.082-224.816 0c0 62.082 50.327 112.409 112.408 112.409S0 62.082 0 0Z" style="stroke-width:30;stroke-linecap:butt;stroke-linejoin:miter;stroke-miterlimit:10;stroke-dasharray:none;stroke-opacity:1" transform="translate(368.408 256)" data-original="#000000"/><path d="m0 0-69.785-69.785" style="stroke-width:30;stroke-linecap:round;stroke-linejoin:miter;stroke-miterlimit:10;stroke-dasharray:none;stroke-opacity:1" transform="translate(303.227 284.952)" stroke-linecap="round" data-original="#000000"/><path d="m0 0 26.668-26.668" style="stroke-width:30;stroke-linecap:round;stroke-linejoin:miter;stroke-miterlimit:10;stroke-dasharray:none;stroke-opacity:1" transform="translate(206.773 241.834)" stroke-linecap="round" data-original="#000000"/></g></g></svg><svg viewBox="0 0 682.667 682.667" style="enable-background:new 0 0 512 512" xml:space="preserve" id="img" xmlns="http://www.w3.org/2000/svg"><defs><clipPath id="ala" clipPathUnits="userSpaceOnUse"><path d="M0 512h512V0H0Z" fill="#FFF" data-original="#FFFFFF"/></clipPath></defs><g clip-path="url(#ala)" transform="matrix(1.33333 0 0 -1.33333 0 682.667)" fill="none" stroke="#FFF" stroke-width="30" stroke-linecap="round" stroke-linejoin="round" stroke-miterlimit="10"><path d="M0 0a32.118 32.118 0 0 1-9.399 22.718 32.147 32.147 0 0 1-22.734 9.415h-417.734a32.147 32.147 0 0 1-22.734-9.415A32.118 32.118 0 0 1-482 0v-321.334a32.118 32.118 0 0 1 9.399-22.718 32.147 32.147 0 0 1 22.734-9.415h417.734a32.147 32.147 0 0 1 22.734 9.415A32.118 32.118 0 0 1 0-321.334z" style="stroke-width:30;stroke-linecap:round;stroke-linejoin:round;stroke-miterlimit:10;stroke-dasharray:none;stroke-opacity:1" transform="translate(497 416.667)" data-original="#FFFFFF"/><path d="m0 0 160.667 160.666 64.267-64.267 128.533 128.535 96.4-96.401" style="stroke-width:30;stroke-linecap:round;stroke-linejoin:round;stroke-miterlimit:10;stroke-dasharray:none;stroke-opacity:1" transform="translate(47.133 63.2)" data-original="#FFFFFF"/><path d="M0 0c26.591 0 48.2-21.602 48.2-48.2 0-26.598-21.609-48.199-48.2-48.199S-48.2-74.798-48.2-48.2-26.591 0 0 0Z" style="stroke-width:30;stroke-linecap:round;stroke-linejoin:round;stroke-miterlimit:10;stroke-dasharray:none;stroke-opacity:1" transform="translate(127.467 384.533)" data-original="#FFFFFF"/></g></svg><svg style="enable-background:new 0 0 512 512" xml:space="preserve" viewBox="0 0 512 512" id="lens" xmlns="http://www.w3.org/2000/svg"><g fill="#FFF"><path d="M437 311c41.355 0 75-33.645 75-75V100c0-41.355-33.645-75-75-75H75C33.645 25 0 58.645 0 100v136c0 41.355 33.645 75 75 75h126v50H45c-24.813 0-45 20.187-45 45v36c0 24.813 20.187 45 45 45h422c24.813 0 45-20.187 45-45v-36c0-24.813-20.187-45-45-45H311v-50zM30 236V100c0-24.813 20.187-45 45-45h362c24.813 0 45 20.187 45 45v136c0 24.813-20.187 45-45 45H75c-24.813 0-45-20.187-45-45zm437 155c8.271 0 15 6.729 15 15v36c0 8.271-6.729 15-15 15H45c-8.271 0-15-6.729-15-15v-36c0-8.271 6.729-15 15-15h156v17c0 8.284 6.716 15 15 15h80c8.284 0 15-6.716 15-15v-17zm-186 2h-50v-82h50z" data-original="#FFFFFF"/><path d="M343 168c0-47.972-39.028-87-87-87s-87 39.028-87 87 39.028 87 87 87 87-39.028 87-87zm-144 0c0-31.43 25.57-57 57-57s57 25.57 57 57-25.57 57-57 57-57-25.57-57-57z" data-original="#FFFFFF"/><path d="M271.02 168c0-8.215-6.642-15-15.01-15-8.284 0-14.995 6.716-14.995 15s6.721 15 15.005 15c8.285 0 15-6.716 15-15zM400 183h32c8.284 0 15-6.716 15-15s-6.716-15-15-15h-32c-8.284 0-15 6.716-15 15s6.716 15 15 15zm-288-30H80c-8.284 0-15 6.716-15 15s6.716 15 15 15h32c8.284 0 15-6.716 15-15s-6.716-15-15-15z" data-original="#FFFFFF"/></g></svg><svg style="enable-background:new 0 0 512 512" xml:space="preserve" viewBox="0 0 512 512" id="loop" xmlns="http://www.w3.org/2000/svg"><g fill="#fff"><path d="M362 0c-82.71 0-150 67.29-150 150v62h-62C67.29 212 0 279.29 0 362s67.29 150 150 150 150-67.29 150-150v-62h62c82.71 0 150-67.29 150-150S444.71 0 362 0zm0 270h-77c-8.284 0-15 6.716-15 15v77c0 66.168-53.832 120-120 120S30 428.168 30 362s53.832-120 120-120h77c8.284 0 15-6.716 15-15v-77c0-66.168 53.832-120 120-120s120 53.832 120 120-53.832 120-120 120z" data-original="#000000"/><path d="M225 272h-75c-49.626 0-90 40.374-90 90s40.374 90 90 90 90-40.374 90-90v-75c0-8.284-6.716-15-15-15zm-15 90c0 33.084-26.916 60-60 60s-60-26.916-60-60 26.916-60 60-60h60zM362 60c-49.626 0-90 40.374-90 90v75c0 8.284 6.716 15 15 15h75c49.626 0 90-40.374 90-90s-40.374-90-90-90zm0 150h-60v-60c0-33.084 26.916-60 60-60s60 26.916 60 60-26.916 60-60 60z" data-original="#000000"/></g></svg><svg viewBox="0 0 682.667 682.667" style="enable-background:new 0 0 512 512" xml:space="preserve" id="map" xmlns="http://www.w3.org/2000/svg"><defs><clipPath id="aoa" clipPathUnits="userSpaceOnUse"><path d="M0 512h512V0H0Z" fill="#FFF" data-original="#FFFFFF"/></clipPath></defs><path d="M0 0h64.267v-128.533" style="stroke-width:30;stroke-linecap:round;stroke-linejoin:round;stroke-miterlimit:10;stroke-dasharray:none;stroke-opacity:1" transform="matrix(1.33333 0 0 -1.33333 105.689 405.6)" fill="none" stroke="#FFF" stroke-width="30" stroke-linecap="round" stroke-linejoin="round" stroke-miterlimit="10" data-original="#FFFFFF"/><path d="M0 0h-192.8" style="stroke-width:30;stroke-linecap:round;stroke-linejoin:round;stroke-miterlimit:10;stroke-dasharray:none;stroke-opacity:1" transform="matrix(1.33333 0 0 -1.33333 576.978 427.022)" fill="none" stroke="#FFF" stroke-width="30" stroke-linecap="round" stroke-linejoin="round" stroke-miterlimit="10" data-original="#FFFFFF"/><path d="M0 0v-224.934" style="stroke-width:30;stroke-linecap:round;stroke-linejoin:round;stroke-miterlimit:10;stroke-dasharray:none;stroke-opacity:1" transform="matrix(1.33333 0 0 -1.33333 319.91 277.066)" fill="none" stroke="#FFF" stroke-width="30" stroke-linecap="round" stroke-linejoin="round" stroke-miterlimit="10" data-original="#FFFFFF"/><g clip-path="url(#aoa)" transform="matrix(1.33333 0 0 -1.33333 0 682.667)"><path d="M0 0s-80.333 77.747-80.333 160.667C-80.333 205.002-44.336 241 0 241c44.335 0 80.333-35.998 80.333-80.333C80.333 77.747 0 0 0 0Z" style="stroke-width:30;stroke-linecap:round;stroke-linejoin:round;stroke-miterlimit:10;stroke-dasharray:none;stroke-opacity:1" transform="translate(336.334 256)" fill="none" stroke="#FFF" stroke-width="30" stroke-linecap="round" stroke-linejoin="round" stroke-miterlimit="10" data-original="#FFFFFF"/><path d="M0 0v-224.934h-353.467V0h217.607c19.842-29.217 39.46-48.2 39.46-48.2S-76.783-29.217-56.94 0z" style="stroke-width:30;stroke-linecap:round;stroke-linejoin:round;stroke-miterlimit:10;stroke-dasharray:none;stroke-opacity:1" transform="translate(432.733 304.2)" fill="none" stroke="#FFF" stroke-width="30" stroke-linecap="round" stroke-linejoin="round" stroke-miterlimit="10" data-original="#FFFFFF"/><path d="M0 0a64.267 64.267 0 0 0 64.267-64.267V-289.2c0-35.491-28.776-64.267-64.267-64.267h-353.467c-35.491 0-64.266 28.776-64.266 64.267v224.933C-417.733-28.775-388.958 0-353.467 0h184.976C-148.006-62.523-96.4-112.467-96.4-112.467S-44.794-62.523-24.309 0z" style="stroke-width:30;stroke-linecap:round;stroke-linejoin:round;stroke-miterlimit:10;stroke-dasharray:none;stroke-opacity:1" transform="translate(432.733 368.467)" fill="none" stroke="#FFF" stroke-width="30" stroke-linecap="round" stroke-linejoin="round" stroke-miterlimit="10" data-original="#FFFFFF"/><path d="M0 0c8.28 0 15-6.72 15-15 0-8.28-6.72-15-15-15-8.28 0-15 6.72-15 15C-15-6.72-8.28 0 0 0" style="fill-opacity:1;fill-rule:evenodd;stroke:none" transform="translate(336.334 431.666)" fill="#FFF" data-original="#FFFFFF"/><path d="M0 0v-48.2" style="stroke-width:30;stroke-linecap:round;stroke-linejoin:round;stroke-miterlimit:10;stroke-dasharray:none;stroke-opacity:1" transform="translate(368.467 191.733)" fill="none" stroke="#FFF" stroke-width="30" stroke-linecap="round" stroke-linejoin="round" stroke-miterlimit="10" data-original="#FFFFFF"/></g></svg><svg style="enable-background:new 0 0 512 512" xml:space="preserve" viewBox="0 0 512 512" id="parking" xmlns="http://www.w3.org/2000/svg"><g fill="none" stroke="#000" stroke-width="30" stroke-linecap="round" stroke-linejoin="round" stroke-miterlimit="10"><path d="M468.88 251.821c17.362 17.152 28.12 40.971 28.12 67.314 0 26.206-10.653 49.921-27.858 67.051m-44.883-89.744a31.41 31.41 0 0 1 9.643 22.694 31.39 31.39 0 0 1-9.38 22.431m-95.564-246.87c24.405-.149 48.855 9.087 67.483 27.714 18.531 18.531 27.766 42.832 27.714 67.111m-95.197-31.723a31.41 31.41 0 0 1 22.866 9.228 31.386 31.386 0 0 1 9.228 22.494m-169.146 8.851H15V97.699h93.005c17.543 0 33.558 10.019 41.213 25.799l42.688 74.874z" style="stroke-width:30;stroke-linecap:round;stroke-linejoin:round;stroke-miterlimit:10" data-original="#000000"/><path d="M213.55 358.142h94.63v-99.15c0-21.25-14.61-39.7-35.28-44.59l-80.99-16.03H15v159.77h77.67m99.536-159.769h-.3" style="stroke-width:30;stroke-linecap:round;stroke-linejoin:round;stroke-miterlimit:10" data-original="#000000"/><path d="M213.573 356.835c0 .406 0 .823-.025 1.229-.639 32.834-27.452 59.241-60.433 59.241-32.994 0-59.806-26.407-60.445-59.241-.025-.406-.025-.823-.025-1.229 0-33.399 27.071-60.47 60.47-60.47 33.387 0 60.458 27.071 60.458 60.47zm94.607-37.831h33.041" style="stroke-width:30;stroke-linecap:round;stroke-linejoin:round;stroke-miterlimit:10" data-original="#000000"/></g></svg><svg viewBox="0 0 682.667 682.667" style="enable-background:new 0 0 512 512" xml:space="preserve" id="photo" xmlns="http://www.w3.org/2000/svg"><defs><clipPath id="aqa" clipPathUnits="userSpaceOnUse"><path d="M0 512h512V0H0Z" fill="#FFF" data-original="#FFFFFF"/></clipPath></defs><g clip-path="url(#aqa)" transform="matrix(1.33333 0 0 -1.33333 0 682.667)"><path d="M0 0c0-66.274-53.726-120-120-120S-240-66.274-240 0s53.726 120 120 120S0 66.274 0 0Z" style="stroke-width:30;stroke-linecap:round;stroke-linejoin:round;stroke-miterlimit:10;stroke-dasharray:none;stroke-opacity:1" transform="translate(376 236)" fill="none" stroke="#FFF" stroke-width="30" stroke-linecap="round" stroke-linejoin="round" stroke-miterlimit="10" data-original="#FFFFFF"/><path d="M0 0c0-33.137-26.863-60-60-60s-60 26.863-60 60 26.863 60 60 60S0 33.137 0 0Z" style="stroke-width:30;stroke-linecap:round;stroke-linejoin:round;stroke-miterlimit:10;stroke-dasharray:none;stroke-opacity:1" transform="translate(316 236)" fill="none" stroke="#FFF" stroke-width="30" stroke-linecap="round" stroke-linejoin="round" stroke-miterlimit="10" data-original="#FFFFFF"/><path d="m0 0-13.162 39.487A30.001 30.001 0 0 1-41.623 60h-96.754a30.001 30.001 0 0 1-28.461-20.513L-180 0h-111c-22.092 0-40-17.909-40-40v-260c0-22.091 17.908-40 40-40h402c22.092 0 40 17.909 40 40v260c0 22.091-17.908 40-40 40z" style="stroke-width:30;stroke-linecap:round;stroke-linejoin:round;stroke-miterlimit:10;stroke-dasharray:none;stroke-opacity:1" transform="translate(346 396)" fill="none" stroke="#FFF" stroke-width="30" stroke-linecap="round" stroke-linejoin="round" stroke-miterlimit="10" data-original="#FFFFFF"/><path d="M0 0h-20c-11.046 0-20-8.954-20-20v-40h60v40C20-8.954 11.046 0 0 0Z" style="stroke-width:30;stroke-linecap:round;stroke-linejoin:round;stroke-miterlimit:10;stroke-dasharray:none;stroke-opacity:1" transform="translate(96 456)" fill="none" stroke="#FFF" stroke-width="30" stroke-linecap="round" stroke-linejoin="round" stroke-miterlimit="10" data-original="#FFFFFF"/><path d="M0 0c0-8.284-6.716-15-15-15-8.284 0-15 6.716-15 15 0 8.284 6.716 15 15 15C-6.716 15 0 8.284 0 0" style="fill-opacity:1;fill-rule:nonzero;stroke:none" transform="translate(451 336)" fill="#FFF" data-original="#FFFFFF"/><path d="M0 0h30" style="stroke-width:30;stroke-linecap:round;stroke-linejoin:round;stroke-miterlimit:10;stroke-dasharray:none;stroke-opacity:1" transform="translate(76 336)" fill="none" stroke="#FFF" stroke-width="30" stroke-linecap="round" stroke-linejoin="round" stroke-miterlimit="10" data-original="#FFFFFF"/></g></svg><svg viewBox="0 0 682.667 682.667" style="enable-background:new 0 0 512 512" xml:space="preserve" id="play" xmlns="http://www.w3.org/2000/svg"><defs><clipPath id="ara" clipPathUnits="userSpaceOnUse"><path d="M0 512h512V0H0Z" fill="#fff" data-original="#000000"/></clipPath><clipPath id="arb" clipPathUnits="userSpaceOnUse"><path d="M0 512h512V0H0Z" fill="#fff" data-original="#000000"/></clipPath></defs><g clip-path="url(#ara)" transform="matrix(1.33333 0 0 -1.33333 0 682.667)"><path d="M497 136.022H15v313.437h482z" style="stroke-width:30;stroke-linecap:round;stroke-linejoin:round;stroke-miterlimit:10;stroke-dasharray:none;stroke-opacity:1" fill="none" stroke="#fff" stroke-width="30" stroke-linecap="round" stroke-linejoin="round" stroke-miterlimit="10" data-original="#000000"/></g><path d="M0 0v129.604l108.279-64.802Z" style="stroke-width:30;stroke-linecap:round;stroke-linejoin:round;stroke-miterlimit:10;stroke-dasharray:none;stroke-opacity:1" transform="matrix(1.33333 0 0 -1.33333 269.147 336.193)" fill="none" stroke="#fff" stroke-width="30" stroke-linecap="round" stroke-linejoin="round" stroke-miterlimit="10" data-original="#000000"/><path d="M0 0h-362" style="stroke-width:30;stroke-linecap:round;stroke-linejoin:round;stroke-miterlimit:10;stroke-dasharray:none;stroke-opacity:1" transform="matrix(1.33333 0 0 -1.33333 582.667 407.97)" fill="none" stroke="#fff" stroke-width="30" stroke-linecap="round" stroke-linejoin="round" stroke-miterlimit="10" data-original="#000000"/><path d="M0 0v35.28" style="stroke-width:30;stroke-linecap:round;stroke-linejoin:round;stroke-miterlimit:10;stroke-dasharray:none;stroke-opacity:1" transform="matrix(1.33333 0 0 -1.33333 500.072 431.49)" fill="none" stroke="#fff" stroke-width="30" stroke-linecap="round" stroke-linejoin="round" stroke-miterlimit="10" data-original="#000000"/><g clip-path="url(#arb)" transform="matrix(1.33333 0 0 -1.33333 0 682.667)" fill="none" stroke="#fff" stroke-width="30" stroke-linecap="round" stroke-linejoin="round" stroke-miterlimit="10"><path d="M0 0s-69.089-24.093-95.811-73.481" style="stroke-width:30;stroke-linecap:round;stroke-linejoin:round;stroke-miterlimit:10;stroke-dasharray:none;stroke-opacity:1" transform="translate(156.682 136.023)" data-original="#000000"/><path d="M0 0s69.089-24.093 95.811-73.481" style="stroke-width:30;stroke-linecap:round;stroke-linejoin:round;stroke-miterlimit:10;stroke-dasharray:none;stroke-opacity:1" transform="translate(355.318 136.023)" data-original="#000000"/></g></svg><svg viewBox="0 0 512.003 512.003" style="enable-background:new 0 0 512 512" xml:space="preserve" id="radar" xmlns="http://www.w3.org/2000/svg"><path d="M27.863 267.602.207 433.536c-1.521 9.124 5.518 17.466 14.796 17.466h90a15 15 0 0 0 14.796-12.534l21.668-130.011c13.621 13.899 32.584 22.545 53.536 22.545 8.284 0 15-6.716 15-15s-6.716-15-15-15c-19.555 0-36.228-12.542-42.42-30h164.42c8.284 0 15-6.716 15-15v-180c0-8.284-6.716-15-15-15h-272c-24.813 0-45 20.187-45 45v120c0 18.746 11.526 34.844 27.86 41.6zm64.433 153.4H32.71l25-150h59.586zm-47.293-180c-8.271 0-15-6.729-15-15v-45h105c2.329 0 4.625-.542 6.708-1.583l56.833-28.417h103.459v90zm0-150h257v30h-107c-2.329 0-4.625.542-6.708 1.583l-56.833 28.417H30.003v-45c0-8.271 6.729-15 15-15zm377 15v120c0 8.284 6.716 15 15 15s15-6.716 15-15v-120c0-8.284-6.716-15-15-15s-15 6.715-15 15zm-60 30v60c0 8.284 6.716 15 15 15s15-6.716 15-15v-60c0-8.284-6.716-15-15-15s-15 6.715-15 15zm135-75c-8.284 0-15 6.716-15 15v180c0 8.284 6.716 15 15 15s15-6.716 15-15v-180c0-8.285-6.715-15-15-15z" data-original="#000000"/></svg><svg style="enable-background:new 0 0 512 512" xml:space="preserve" viewBox="0 0 512 512" id="remote" xmlns="http://www.w3.org/2000/svg"><g fill="none" stroke="#FFF" stroke-width="30" stroke-linecap="round" stroke-linejoin="round" stroke-miterlimit="10"><path d="m79.442 480.587-48.028-48.028c-21.885-21.885-21.885-57.367 0-79.251l212.784-212.784c21.885-21.885 57.367-21.885 79.251 0l48.028 48.028c21.885 21.885 21.885 57.367 0 79.251L158.693 480.587c-21.885 21.884-57.367 21.884-79.251 0z" style="stroke-width:30;stroke-linecap:round;stroke-linejoin:round;stroke-miterlimit:10" data-original="#FFFFFF"/><circle cx="283.823" cy="228.177" r="30" style="stroke-width:30;stroke-linecap:round;stroke-linejoin:round;stroke-miterlimit:10" data-original="#FFFFFF"/><path d="M203.92 265.654h0m42.426 42.426h0m-84.852 0h0m42.426 42.426h0m-84.853 0 42.427 42.427m-84.853 0 42.426 42.426M372.255 77.365c15.959.007 31.925 6.094 44.106 18.274s18.267 28.147 18.274 44.106M372.255 15c31.925-.007 63.85 12.173 88.211 36.534 24.361 24.361 36.541 56.286 36.534 88.211" style="stroke-width:30;stroke-linecap:round;stroke-linejoin:round;stroke-miterlimit:10" data-original="#FFFFFF"/></g></svg><svg style="enable-background:new 0 0 512 512" xml:space="preserve" viewBox="0 0 512 512" id="road" xmlns="http://www.w3.org/2000/svg"><path d="M501.893 465.289 367.926 25.597C363.261 10.287 349.393 0 333.416 0H187.531c-15.668 0-29.455 10.029-34.307 24.955L10.27 464.647c-3.573 10.99-1.653 23.13 5.135 32.475C22.273 506.577 32.905 512 44.577 512h422.806c11.537 0 22.098-5.324 28.974-14.607 6.897-9.312 8.915-21.014 5.536-32.104zm-246.251-25.952c-8.284 0-15 6.716-15 15V482H121.268L224.069 30h16.63v27.663c0 8.284 6.716 15 15 15s15-6.716 15-15V30h26.856l102.801 452H270.642v-27.663c0-8.284-6.716-15-15-15zM39.677 479.491c-.693-.955-1.729-2.947-.878-5.568L181.755 34.23c.822-2.53 3.144-4.23 5.776-4.23h5.77l-102.8 452H44.577c-2.677 0-4.219-1.572-4.9-2.509zm432.572.046c-.681.92-2.219 2.463-4.866 2.463h-36.26L328.322 30h5.094c2.686 0 5.021 1.745 5.813 4.341l133.967 439.691c.793 2.607-.252 4.568-.947 5.505z" data-original="#000000"/><path d="M270.698 364.337c0-8.284-6.716-15-15-15s-15 6.716-15 15V407c0 8.284 6.716 15 15 15s15-6.716 15-15zM255.642 333c8.284 0 15-6.716 15-15v-42.663c0-8.284-6.716-15-15-15s-15 6.716-15 15V318c0 8.284 6.716 15 15 15zm.028-160.663c-8.284 0-15 6.716-15 15V230c0 8.284 6.716 15 15 15s15-6.716 15-15v-42.663c0-8.284-6.716-15-15-15zM255.613 157c8.284 0 15-6.716 15-15v-40.663c0-8.284-6.716-15-15-15s-15 6.716-15 15V142c0 8.284 6.716 15 15 15z" data-original="#000000"/></svg><svg style="enable-background:new 0 0 512 512" xml:space="preserve" viewBox="0 0 512 512" id="rus" xmlns="http://www.w3.org/2000/svg"><g fill="#fff"><path d="M489.385 184.601c-12.393-13.041-28.236-21.561-45.61-24.723-4.378-28.797-29.305-50.933-59.304-50.933-4.218 0-8.405.444-12.493 1.313-8.254-22.063-26.842-45.456-55.496-69.783-26.043-22.109-50.948-36.895-51.995-37.513a14.953 14.953 0 0 0-15.207 0c-1.06.626-26.265 15.59-52.477 37.924-28.544 24.321-47.013 47.693-55.151 69.738a60.03 60.03 0 0 0-14.121-1.679c-30 0-54.927 22.136-59.304 50.933-17.375 3.162-33.218 11.682-45.61 24.722C7.21 200.811-.799 221.991.063 244.24c.913 23.499 11.963 45.528 29.962 60.4v63.936c0 24.037 9.359 46.64 26.362 63.655 13.855 13.845 31.423 22.619 50.45 25.397v38.536c0 1.549.236 3.042.673 4.447 1.893 6.087 7.57 10.506 14.28 10.506 8.257 0 14.952-6.694 14.952-14.952v-75.087c.021-66.229 53.908-120.103 120.141-120.103 32.095 0 62.263 12.498 84.951 35.195 22.674 22.665 35.169 52.802 35.19 84.867v75.129c0 8.258 6.694 14.952 14.952 14.952 5.161 0 9.712-2.615 12.399-6.593a14.883 14.883 0 0 0 2.554-8.36V457.33c18.346-3.053 35.262-11.687 48.692-25.107 16.996-17.008 26.355-39.611 26.355-63.647V304.64c17.999-14.872 29.048-36.902 29.962-60.402.861-22.246-7.148-43.426-22.553-59.637zm-232.503 86.47c-48.449 0-91.6 23.088-119.051 58.833 7.917-58.632 58.284-103.984 119.051-103.984 60.709 0 111.037 45.265 119.028 103.816a152.253 152.253 0 0 0-12.932-14.712c-28.332-28.344-66.011-43.953-106.096-43.953zM226.843 147.21a6 6 0 0 1-2.033-4.559c0-3.343 2.669-6.062 5.949-6.062.549 0 1.07.07 1.548.208a14.948 14.948 0 0 0 18.769-11.225c.591-2.751 3.038-4.749 5.817-4.749 2.78 0 5.226 1.997 5.817 4.748a14.96 14.96 0 0 0 6.945 9.694 14.957 14.957 0 0 0 11.826 1.531 5.562 5.562 0 0 1 1.547-.208c3.28 0 5.949 2.72 5.949 6.062a5.998 5.998 0 0 1-2.034 4.559 14.952 14.952 0 0 0-.01 22.403 6.03 6.03 0 0 1 2.044 4.569c0 3.347-2.668 6.069-5.949 6.069-.55 0-1.071-.07-1.547-.208a14.951 14.951 0 0 0-18.77 11.223c-.592 2.753-3.039 4.751-5.818 4.751s-5.226-1.998-5.818-4.752a14.952 14.952 0 0 0-18.769-11.222 5.575 5.575 0 0 1-1.548.208c-3.28 0-5.949-2.723-5.949-6.069a6.027 6.027 0 0 1 2.044-4.569 14.953 14.953 0 0 0-.01-22.402zm255.213 95.869c-.651 16.734-9.379 32.304-23.347 41.652a14.95 14.95 0 0 0-6.637 12.426v71.419c0 16.053-6.252 31.149-17.596 42.502-7.742 7.736-17.219 13.097-27.548 15.732l-.001-80.748c0-66.376-43.328-122.814-103.183-142.542 9.151-6.524 15.136-17.241 15.136-29.338a36.056 36.056 0 0 0-3.629-15.763 36.047 36.047 0 0 0 3.629-15.768c0-18.603-14.153-33.953-32.225-35.783-6.531-9.692-17.612-15.948-29.762-15.948s-23.231 6.255-29.762 15.948c-18.072 1.831-32.225 17.18-32.225 35.783a36.058 36.058 0 0 0 3.629 15.768 36.056 36.056 0 0 0-3.629 15.763c0 12.094 5.982 22.808 15.129 29.333-59.863 19.723-103.198 76.165-103.198 142.547v81.158c-11.012-2.455-21.131-7.966-29.305-16.134-11.352-11.36-17.603-26.457-17.603-42.51v-71.419c0-4.99-2.49-9.651-6.637-12.426-13.97-9.348-22.698-24.918-23.348-41.65-.547-14.116 4.548-27.569 14.348-37.881 10.118-10.648 23.829-16.611 38.606-16.792a14.956 14.956 0 0 0 10.934-4.953c3.788-3.909 4.139-9.417 3.614-14.523 0-16.588 13.495-30.082 30.083-30.082a29.96 29.96 0 0 1 16.364 4.842 14.954 14.954 0 0 0 23.03-11.109c3.516-36.646 60.435-80.24 89.957-99.171 29.252 18.763 85.651 61.915 89.881 98.436a14.95 14.95 0 0 0 22.458 11.153 29.986 29.986 0 0 1 15.251-4.151c16.588 0 30.082 13.495 30.082 30.082-.525 5.104-.172 10.618 3.616 14.524a14.951 14.951 0 0 0 10.933 4.952c14.777.181 28.488 6.145 38.606 16.793 9.8 10.311 14.896 23.764 14.349 37.878z" data-original="#000000"/><path d="M76.753 226.027c-8.257 0-14.957 6.699-14.957 14.957s6.699 14.957 14.957 14.957 14.957-6.7 14.957-14.957c0-8.258-6.699-14.957-14.957-14.957zm60.051-52.526c-8.258 0-14.957 6.699-14.957 14.957 0 8.257 6.699 14.957 14.957 14.957 8.257 0 14.957-6.699 14.957-14.957s-6.699-14.957-14.957-14.957zm300.207 52.526c-8.258 0-14.957 6.699-14.957 14.957s6.699 14.957 14.957 14.957 14.957-6.7 14.957-14.957c0-8.258-6.699-14.957-14.957-14.957z" data-original="#000000"/><circle cx="376.96" cy="188.458" r="14.957" data-original="#000000"/></g></svg><svg viewBox="0 0 682.667 682.667" style="enable-background:new 0 0 512 512" xml:space="preserve" id="sdcard" xmlns="http://www.w3.org/2000/svg"><defs><clipPath id="awa" clipPathUnits="userSpaceOnUse"><path d="M0 512h512V0H0Z" fill="#FFF" data-original="#FFFFFF"/></clipPath></defs><g clip-path="url(#awa)" transform="matrix(1.33333 0 0 -1.33333 0 682.667)" fill="none" stroke="#FFF" stroke-width="30" stroke-linecap="round" stroke-linejoin="round" stroke-miterlimit="10"><path d="M0 0a32.1 32.1 0 0 1-9.415 22.719 32.097 32.097 0 0 1-22.719 9.415h-198.31a64.275 64.275 0 0 1-45.445-18.822l-58.756-58.756a64.275 64.275 0 0 1-18.822-45.445v-326.843c0-17.747 14.388-32.134 32.134-32.134h289.199a32.097 32.097 0 0 1 22.719 9.415A32.097 32.097 0 0 1 0-417.732z" style="stroke-width:30;stroke-linecap:round;stroke-linejoin:round;stroke-miterlimit:10;stroke-dasharray:none;stroke-opacity:1" transform="translate(432.733 464.866)" data-original="#FFFFFF"/><path d="M0 0v-48.2" style="stroke-width:30;stroke-linecap:round;stroke-linejoin:round;stroke-miterlimit:10;stroke-dasharray:none;stroke-opacity:1" transform="translate(288.134 432.733)" data-original="#FFFFFF"/><path d="M0 0v-48.2" style="stroke-width:30;stroke-linecap:round;stroke-linejoin:round;stroke-miterlimit:10;stroke-dasharray:none;stroke-opacity:1" transform="translate(352.4 432.733)" data-original="#FFFFFF"/><path d="M0 0v-48.2" style="stroke-width:30;stroke-linecap:round;stroke-linejoin:round;stroke-miterlimit:10;stroke-dasharray:none;stroke-opacity:1" transform="translate(223.866 432.733)" data-original="#FFFFFF"/><path d="M0 0v-16.066" style="stroke-width:30;stroke-linecap:round;stroke-linejoin:round;stroke-miterlimit:10;stroke-dasharray:none;stroke-opacity:1" transform="translate(159.6 400.6)" data-original="#FFFFFF"/><path d="M143.533 79.267h224.934V256H143.533Z" style="stroke-width:30;stroke-linecap:round;stroke-linejoin:round;stroke-miterlimit:10;stroke-dasharray:none;stroke-opacity:1" data-original="#FFFFFF"/></g></svg><svg viewBox="0 0 682.667 682.667" style="enable-background:new 0 0 512 512" xml:space="preserve" id="sound" xmlns="http://www.w3.org/2000/svg"><defs><clipPath id="axa" clipPathUnits="userSpaceOnUse"><path d="M0 512h512V0H0Z" fill="#FFF" data-original="#FFFFFF"/></clipPath></defs><g clip-path="url(#axa)" transform="matrix(1.33333 0 0 -1.33333 0 682.667)" fill="none" stroke="#FFF" stroke-width="30" stroke-linecap="round" stroke-linejoin="round" stroke-miterlimit="10"><path d="M0 0h-113.502c-16.568 0-30 13.432-30 30v95.46c0 16.569 13.432 30 30 30H0Zm0 0 130.977-104.887v365.234L0 155.46Z" style="stroke-width:30;stroke-linecap:round;stroke-linejoin:round;stroke-miterlimit:10;stroke-dasharray:none;stroke-opacity:1" transform="translate(158.505 178.261)" data-original="#FFFFFF"/><path d="M0 0c24.743 44.075 38.88 94.868 38.88 148.909 0 54.035-14.135 104.824-38.873 148.896" style="stroke-width:30;stroke-linecap:round;stroke-linejoin:round;stroke-miterlimit:10;stroke-dasharray:none;stroke-opacity:1" transform="translate(458.117 107.092)" data-original="#FFFFFF"/><path d="M0 0c16.069 31.967 25.135 68.035 25.135 106.185 0 38.145-9.063 74.208-25.128 106.171" style="stroke-width:30;stroke-linecap:round;stroke-linejoin:round;stroke-miterlimit:10;stroke-dasharray:none;stroke-opacity:1" transform="translate(403.907 149.816)" data-original="#FFFFFF"/><path d="M0 0c7.791 19.45 12.086 40.678 12.086 62.911 0 22.228-4.292 43.451-12.08 62.897" style="stroke-width:30;stroke-linecap:round;stroke-linejoin:round;stroke-miterlimit:10;stroke-dasharray:none;stroke-opacity:1" transform="translate(349 193.09)" data-original="#FFFFFF"/></g></svg><svg viewBox="0 0 32 32" style="enable-background:new 0 0 512 512" xml:space="preserve" id="star" xmlns="http://www.w3.org/2000/svg"><path d="m29.388 13.867-5.969 5.819 1.41 8.213a1 1 0 0 1-1.452 1.054L16 25.075l-7.377 3.878A1 1 0 0 1 7.172 27.9l1.409-8.213-5.969-5.819a1 1 0 0 1 .555-1.705l8.247-1.2 3.689-7.473a1.041 1.041 0 0 1 1.794 0l3.688 7.474 8.248 1.2a1 1 0 0 1 .555 1.704z" fill="#EA142E" data-original="#000000"/></svg><svg viewBox="0 0 682.667 682.667" style="enable-background:new 0 0 512 512" xml:space="preserve" id="tech" xmlns="http://www.w3.org/2000/svg"><defs><clipPath id="aza" clipPathUnits="userSpaceOnUse"><path d="M0 512h512V0H0Z" fill="#FFF" data-original="#FFFFFF"/></clipPath></defs><path d="M436 76H76v360h360z" style="stroke-width:30;stroke-linecap:round;stroke-linejoin:round;stroke-miterlimit:10;stroke-dasharray:none;stroke-opacity:1" transform="matrix(1.33333 0 0 -1.33333 0 682.667)" fill="none" stroke="#FFF" stroke-width="30" stroke-linecap="round" stroke-linejoin="round" stroke-miterlimit="10" data-original="#FFFFFF"/><path d="M376 136H136v240h240z" style="stroke-width:30;stroke-linecap:round;stroke-linejoin:round;stroke-miterlimit:10;stroke-dasharray:none;stroke-opacity:1" transform="matrix(1.33333 0 0 -1.33333 0 682.667)" fill="none" stroke="#FFF" stroke-width="30" stroke-linecap="round" stroke-linejoin="round" stroke-miterlimit="10" data-original="#FFFFFF"/><path d="M0 0v90l60 30" style="stroke-width:30;stroke-linecap:round;stroke-linejoin:round;stroke-miterlimit:10;stroke-dasharray:none;stroke-opacity:1" transform="matrix(1.33333 0 0 -1.33333 341.333 501.333)" fill="none" stroke="#FFF" stroke-width="30" stroke-linecap="round" stroke-linejoin="round" stroke-miterlimit="10" data-original="#FFFFFF"/><path d="M0 0v-90l-60-30" style="stroke-width:30;stroke-linecap:round;stroke-linejoin:round;stroke-miterlimit:10;stroke-dasharray:none;stroke-opacity:1" transform="matrix(1.33333 0 0 -1.33333 341.333 181.333)" fill="none" stroke="#FFF" stroke-width="30" stroke-linecap="round" stroke-linejoin="round" stroke-miterlimit="10" data-original="#FFFFFF"/><path d="M0 0v-60" style="stroke-width:30;stroke-linecap:round;stroke-linejoin:round;stroke-miterlimit:10;stroke-dasharray:none;stroke-opacity:1" transform="matrix(1.33333 0 0 -1.33333 261.333 181.333)" fill="none" stroke="#FFF" stroke-width="30" stroke-linecap="round" stroke-linejoin="round" stroke-miterlimit="10" data-original="#FFFFFF"/><path d="M0 0v60" style="stroke-width:30;stroke-linecap:round;stroke-linejoin:round;stroke-miterlimit:10;stroke-dasharray:none;stroke-opacity:1" transform="matrix(1.33333 0 0 -1.33333 421.333 501.333)" fill="none" stroke="#FFF" stroke-width="30" stroke-linecap="round" stroke-linejoin="round" stroke-miterlimit="10" data-original="#FFFFFF"/><path d="M0 0h60" style="stroke-width:30;stroke-linecap:round;stroke-linejoin:round;stroke-miterlimit:10;stroke-dasharray:none;stroke-opacity:1" transform="matrix(1.33333 0 0 -1.33333 181.333 421.333)" fill="none" stroke="#FFF" stroke-width="30" stroke-linecap="round" stroke-linejoin="round" stroke-miterlimit="10" data-original="#FFFFFF"/><path d="M0 0h60" style="stroke-width:30;stroke-linecap:round;stroke-linejoin:round;stroke-miterlimit:10;stroke-dasharray:none;stroke-opacity:1" transform="matrix(1.33333 0 0 -1.33333 421.333 261.333)" fill="none" stroke="#FFF" stroke-width="30" stroke-linecap="round" stroke-linejoin="round" stroke-miterlimit="10" data-original="#FFFFFF"/><g clip-path="url(#aza)" transform="matrix(1.33333 0 0 -1.33333 0 682.667)" fill="none" stroke="#FFF" stroke-width="30" stroke-linecap="round" stroke-linejoin="round" stroke-miterlimit="10"><path d="M0 0v61" style="stroke-width:30;stroke-linecap:round;stroke-linejoin:round;stroke-miterlimit:10;stroke-dasharray:none;stroke-opacity:1" transform="translate(136 15)" data-original="#FFFFFF"/><path d="M0 0v61" style="stroke-width:30;stroke-linecap:round;stroke-linejoin:round;stroke-miterlimit:10;stroke-dasharray:none;stroke-opacity:1" transform="translate(196 15)" data-original="#FFFFFF"/><path d="M0 0v61" style="stroke-width:30;stroke-linecap:round;stroke-linejoin:round;stroke-miterlimit:10;stroke-dasharray:none;stroke-opacity:1" transform="translate(256 15)" data-original="#FFFFFF"/><path d="M0 0v61" style="stroke-width:30;stroke-linecap:round;stroke-linejoin:round;stroke-miterlimit:10;stroke-dasharray:none;stroke-opacity:1" transform="translate(316 15)" data-original="#FFFFFF"/><path d="M0 0v61" style="stroke-width:30;stroke-linecap:round;stroke-linejoin:round;stroke-miterlimit:10;stroke-dasharray:none;stroke-opacity:1" transform="translate(376 15)" data-original="#FFFFFF"/><path d="M0 0v61" style="stroke-width:30;stroke-linecap:round;stroke-linejoin:round;stroke-miterlimit:10;stroke-dasharray:none;stroke-opacity:1" transform="translate(136 436)" data-original="#FFFFFF"/><path d="M0 0v61" style="stroke-width:30;stroke-linecap:round;stroke-linejoin:round;stroke-miterlimit:10;stroke-dasharray:none;stroke-opacity:1" transform="translate(196 436)" data-original="#FFFFFF"/><path d="M0 0v61" style="stroke-width:30;stroke-linecap:round;stroke-linejoin:round;stroke-miterlimit:10;stroke-dasharray:none;stroke-opacity:1" transform="translate(256 436)" data-original="#FFFFFF"/><path d="M0 0v61" style="stroke-width:30;stroke-linecap:round;stroke-linejoin:round;stroke-miterlimit:10;stroke-dasharray:none;stroke-opacity:1" transform="translate(316 436)" data-original="#FFFFFF"/><path d="M0 0v61" style="stroke-width:30;stroke-linecap:round;stroke-linejoin:round;stroke-miterlimit:10;stroke-dasharray:none;stroke-opacity:1" transform="translate(376 436)" data-original="#FFFFFF"/><path d="M0 0h61" style="stroke-width:30;stroke-linecap:round;stroke-linejoin:round;stroke-miterlimit:10;stroke-dasharray:none;stroke-opacity:1" transform="translate(15 376)" data-original="#FFFFFF"/><path d="M0 0h61" style="stroke-width:30;stroke-linecap:round;stroke-linejoin:round;stroke-miterlimit:10;stroke-dasharray:none;stroke-opacity:1" transform="translate(15 316)" data-original="#FFFFFF"/><path d="M0 0h61" style="stroke-width:30;stroke-linecap:round;stroke-linejoin:round;stroke-miterlimit:10;stroke-dasharray:none;stroke-opacity:1" transform="translate(15 256)" data-original="#FFFFFF"/><path d="M0 0h61" style="stroke-width:30;stroke-linecap:round;stroke-linejoin:round;stroke-miterlimit:10;stroke-dasharray:none;stroke-opacity:1" transform="translate(15 196)" data-original="#FFFFFF"/><path d="M0 0h61" style="stroke-width:30;stroke-linecap:round;stroke-linejoin:round;stroke-miterlimit:10;stroke-dasharray:none;stroke-opacity:1" transform="translate(15 136)" data-original="#FFFFFF"/><path d="M0 0h61" style="stroke-width:30;stroke-linecap:round;stroke-linejoin:round;stroke-miterlimit:10;stroke-dasharray:none;stroke-opacity:1" transform="translate(436 376)" data-original="#FFFFFF"/><path d="M0 0h61" style="stroke-width:30;stroke-linecap:round;stroke-linejoin:round;stroke-miterlimit:10;stroke-dasharray:none;stroke-opacity:1" transform="translate(436 316)" data-original="#FFFFFF"/><path d="M0 0h61" style="stroke-width:30;stroke-linecap:round;stroke-linejoin:round;stroke-miterlimit:10;stroke-dasharray:none;stroke-opacity:1" transform="translate(436 256)" data-original="#FFFFFF"/><path d="M0 0h61" style="stroke-width:30;stroke-linecap:round;stroke-linejoin:round;stroke-miterlimit:10;stroke-dasharray:none;stroke-opacity:1" transform="translate(436 196)" data-original="#FFFFFF"/><path d="M0 0h61" style="stroke-width:30;stroke-linecap:round;stroke-linejoin:round;stroke-miterlimit:10;stroke-dasharray:none;stroke-opacity:1" transform="translate(436 136)" data-original="#FFFFFF"/></g></svg><svg style="enable-background:new 0 0 512 512" xml:space="preserve" viewBox="0 0 512 512" id="uhd" xmlns="http://www.w3.org/2000/svg"><g fill="none" stroke="#FFF" stroke-width="30" stroke-linecap="round" stroke-linejoin="round" stroke-miterlimit="10"><path d="M390 352.099h46v-46m-360 0v46h46" style="stroke-width:30;stroke-linecap:round;stroke-linejoin:round;stroke-miterlimit:10" data-original="#FFFFFF"/><path d="M405.75 79.299H497v331.6H15v-331.6h91.25M76.265 481.901c47.02-44.04 110.23-71 179.73-71s132.72 26.97 179.74 71M166.905 90.714v87.407m60.487-87.407v87.407m-60.487-45.203h60.487m60.164-40.823v83.355" style="stroke-width:30;stroke-linecap:round;stroke-linejoin:round;stroke-miterlimit:10" data-original="#FFFFFF"/><path d="M345.833 134.417c0 23.371-12.971 41.864-33.55 42.224-6.85.12-24.554.187-24.554.187s-.11-30.723-.11-42.504c0-9.676-.061-42.317-.061-42.317h24.023c22.57 0 34.252 19.039 34.252 42.41z" style="stroke-width:30;stroke-linecap:round;stroke-linejoin:round;stroke-miterlimit:10" data-original="#FFFFFF"/><path d="M106.25 30.099h299.5v208h-299.5z" style="stroke-width:30;stroke-linecap:round;stroke-linejoin:round;stroke-miterlimit:10" data-original="#FFFFFF"/></g></svg><svg style="enable-background:new 0 0 512 512" xml:space="preserve" viewBox="0 0 512 512" id="usb" xmlns="http://www.w3.org/2000/svg"><g fill="#fff"><path d="M105 90h107.509c6.968 34.192 37.271 60 73.491 60h150c8.284 0 15-6.716 15-15v-15h46c8.284 0 15-6.716 15-15V45c0-8.284-6.716-15-15-15h-46V15c0-8.284-6.716-15-15-15H286c-36.22 0-66.522 25.808-73.491 60H105C47.103 60 0 107.103 0 165s47.103 105 105 105h301c41.196 0 76 34.804 76 76s-34.804 76-76 76H299.491c-6.968-34.192-37.271-60-73.491-60H75c-8.284 0-15 6.716-15 15v15H15c-8.284 0-15 6.716-15 15v60c0 8.284 6.716 15 15 15h45v15c0 8.284 6.716 15 15 15h151c36.22 0 66.522-25.808 73.491-60H406c57.969 0 106-47.857 106-106 0-57.969-47.857-106-106-106H105c-41.355 0-75-33.645-75-75s33.645-75 75-75zm346-30h31v30h-31V60zM286 30h135v90H286c-24.813 0-45-20.187-45-45s20.187-45 45-45zM60 452H30v-30h30v30zm166 30H90v-90h136c24.813 0 45 20.187 45 45s-20.187 45-45 45z" data-original="#000000"/><path d="M226 422h-91c-8.284 0-15 6.716-15 15s6.716 15 15 15h91c8.284 0 15-6.716 15-15s-6.716-15-15-15zM376 60h-90c-8.284 0-15 6.716-15 15s6.716 15 15 15h90c8.284 0 15-6.716 15-15s-6.716-15-15-15z" data-original="#000000"/></g></svg><svg style="enable-background:new 0 0 512 512" xml:space="preserve" viewBox="0 0 512 512" id="video" xmlns="http://www.w3.org/2000/svg"><g fill="#FFF"><path d="m338.95 243.28-120-75A15.002 15.002 0 0 0 195.999 181v150a15 15 0 0 0 22.95 12.72l120-75a15 15 0 0 0 .001-25.44zM226 303.936v-95.873L302.698 256z" data-original="#FFFFFF"/><path d="M437 61H75C33.645 61 0 94.645 0 136v240c0 41.355 33.645 75 75 75h362c41.355 0 75-33.645 75-75V136c0-41.355-33.645-75-75-75zm45 315c0 24.813-20.187 45-45 45H75c-24.813 0-45-20.187-45-45V136c0-24.813 20.187-45 45-45h362c24.813 0 45 20.187 45 45z" data-original="#FFFFFF"/></g></svg><svg viewBox="0 0 147.586 147.586" style="enable-background:new 0 0 512 512" xml:space="preserve" id="wifi" xmlns="http://www.w3.org/2000/svg"><g fill="#FFF"><path d="M48.712 94.208a7.5 7.5 0 0 0 10.607 10.606c7.98-7.98 20.967-7.98 28.947 0 1.465 1.464 3.385 2.197 5.304 2.197s3.839-.732 5.304-2.197a7.5 7.5 0 0 0 0-10.606c-13.83-13.83-36.332-13.83-50.162 0z" data-original="#FFFFFF"/><path d="M26.73 72.225a7.5 7.5 0 0 0 10.607 10.606c20.102-20.102 52.811-20.102 72.912 0 1.465 1.464 3.385 2.197 5.304 2.197s3.839-.732 5.304-2.197a7.5 7.5 0 0 0 0-10.606c-25.951-25.95-68.176-25.95-94.127 0z" data-original="#FFFFFF"/><path d="M145.39 47.692c-39.479-39.479-103.715-39.479-143.193 0a7.5 7.5 0 0 0 10.607 10.606c16.29-16.291 37.95-25.262 60.989-25.262s44.699 8.972 60.989 25.262c1.465 1.464 3.385 2.197 5.304 2.197s3.839-.732 5.304-2.197a7.5 7.5 0 0 0 0-10.606z" data-original="#FFFFFF"/><circle cx="73.793" cy="121.272" r="8.231" data-original="#FFFFFF"/></g></svg></svg>