<svg xmlns="http://www.w3.org/2000/svg" version="1.1" xmlns:xlink="http://www.w3.org/1999/xlink" xmlns:svgjs="http://svgjs.com/svgjs" width="512" height="512" x="0" y="0" viewBox="0 0 682.667 682.667" style="enable-background:new 0 0 512 512" xml:space="preserve"><g><defs><clipPath id="a" clipPathUnits="userSpaceOnUse"><path d="M0 512h512V0H0Z" fill="#FFFFFF" data-original="#FFFFFF"></path></clipPath></defs><g clip-path="url(#a)" transform="matrix(1.33333 0 0 -1.33333 0 682.667)"><path d="M0 0a32.118 32.118 0 0 1-9.399 22.718 32.147 32.147 0 0 1-22.734 9.415h-417.734a32.147 32.147 0 0 1-22.734-9.415A32.118 32.118 0 0 1-482 0v-321.334a32.118 32.118 0 0 1 9.399-22.718 32.147 32.147 0 0 1 22.734-9.415h417.734a32.147 32.147 0 0 1 22.734 9.415A32.118 32.118 0 0 1 0-321.334z" style="stroke-width:30;stroke-linecap:round;stroke-linejoin:round;stroke-miterlimit:10;stroke-dasharray:none;stroke-opacity:1" transform="translate(497 416.667)" fill="none" stroke="#FFFFFF" stroke-width="30" stroke-linecap="round" stroke-linejoin="round" stroke-miterlimit="10" stroke-dasharray="none" stroke-opacity="" data-original="#FFFFFF"></path><path d="m0 0 160.667 160.666 64.267-64.267 128.533 128.535 96.4-96.401" style="stroke-width:30;stroke-linecap:round;stroke-linejoin:round;stroke-miterlimit:10;stroke-dasharray:none;stroke-opacity:1" transform="translate(47.133 63.2)" fill="none" stroke="#FFFFFF" stroke-width="30" stroke-linecap="round" stroke-linejoin="round" stroke-miterlimit="10" stroke-dasharray="none" stroke-opacity="" data-original="#FFFFFF"></path><path d="M0 0c26.591 0 48.2-21.602 48.2-48.2 0-26.598-21.609-48.199-48.2-48.199S-48.2-74.798-48.2-48.2-26.591 0 0 0Z" style="stroke-width:30;stroke-linecap:round;stroke-linejoin:round;stroke-miterlimit:10;stroke-dasharray:none;stroke-opacity:1" transform="translate(127.467 384.533)" fill="none" stroke="#FFFFFF" stroke-width="30" stroke-linecap="round" stroke-linejoin="round" stroke-miterlimit="10" stroke-dasharray="none" stroke-opacity="" data-original="#FFFFFF"></path></g></g></svg>