<svg xmlns="http://www.w3.org/2000/svg" version="1.1" xmlns:xlink="http://www.w3.org/1999/xlink" xmlns:svgjs="http://svgjs.com/svgjs" width="512" height="512" x="0" y="0" viewBox="0 0 512 512" style="enable-background:new 0 0 512 512" xml:space="preserve" class=""><g><path d="M437 311c41.355 0 75-33.645 75-75V100c0-41.355-33.645-75-75-75H75C33.645 25 0 58.645 0 100v136c0 41.355 33.645 75 75 75h126v50H45c-24.813 0-45 20.187-45 45v36c0 24.813 20.187 45 45 45h422c24.813 0 45-20.187 45-45v-36c0-24.813-20.187-45-45-45H311v-50zM30 236V100c0-24.813 20.187-45 45-45h362c24.813 0 45 20.187 45 45v136c0 24.813-20.187 45-45 45H75c-24.813 0-45-20.187-45-45zm437 155c8.271 0 15 6.729 15 15v36c0 8.271-6.729 15-15 15H45c-8.271 0-15-6.729-15-15v-36c0-8.271 6.729-15 15-15h156v17c0 8.284 6.716 15 15 15h80c8.284 0 15-6.716 15-15v-17zm-186 2h-50v-82h50z" fill="#FFFFFF" data-original="#FFFFFF" class=""></path><path d="M343 168c0-47.972-39.028-87-87-87s-87 39.028-87 87 39.028 87 87 87 87-39.028 87-87zm-144 0c0-31.43 25.57-57 57-57s57 25.57 57 57-25.57 57-57 57-57-25.57-57-57z" fill="#FFFFFF" data-original="#FFFFFF" class=""></path><path d="M271.02 168c0-8.215-6.642-15-15.01-15-8.284 0-14.995 6.716-14.995 15s6.721 15 15.005 15c8.285 0 15-6.716 15-15zM400 183h32c8.284 0 15-6.716 15-15s-6.716-15-15-15h-32c-8.284 0-15 6.716-15 15s6.716 15 15 15zM112 153H80c-8.284 0-15 6.716-15 15s6.716 15 15 15h32c8.284 0 15-6.716 15-15s-6.716-15-15-15z" fill="#FFFFFF" data-original="#FFFFFF" class=""></path></g></svg>