<svg xmlns="http://www.w3.org/2000/svg" version="1.1" xmlns:xlink="http://www.w3.org/1999/xlink" xmlns:svgjs="http://svgjs.com/svgjs" width="512" height="512" x="0" y="0" viewBox="0 0 512 512" style="enable-background:new 0 0 512 512" xml:space="preserve"><g><path d="M362 0c-82.71 0-150 67.29-150 150v62h-62C67.29 212 0 279.29 0 362s67.29 150 150 150 150-67.29 150-150v-62h62c82.71 0 150-67.29 150-150S444.71 0 362 0zm0 270h-77c-8.284 0-15 6.716-15 15v77c0 66.168-53.832 120-120 120S30 428.168 30 362s53.832-120 120-120h77c8.284 0 15-6.716 15-15v-77c0-66.168 53.832-120 120-120s120 53.832 120 120-53.832 120-120 120z" fill="#ffffff" data-original="#000000"></path><path d="M225 272h-75c-49.626 0-90 40.374-90 90s40.374 90 90 90 90-40.374 90-90v-75c0-8.284-6.716-15-15-15zm-15 90c0 33.084-26.916 60-60 60s-60-26.916-60-60 26.916-60 60-60h60zM362 60c-49.626 0-90 40.374-90 90v75c0 8.284 6.716 15 15 15h75c49.626 0 90-40.374 90-90s-40.374-90-90-90zm0 150h-60v-60c0-33.084 26.916-60 60-60s60 26.916 60 60-26.916 60-60 60z" fill="#ffffff" data-original="#000000"></path></g></svg>