<svg xmlns="http://www.w3.org/2000/svg" version="1.1" xmlns:xlink="http://www.w3.org/1999/xlink" xmlns:svgjs="http://svgjs.com/svgjs" width="512" height="512" x="0" y="0" viewBox="0 0 512.003 512.003" style="enable-background:new 0 0 512 512" xml:space="preserve"><g><path d="M27.863 267.602.207 433.536c-1.521 9.124 5.518 17.466 14.796 17.466h90a15 15 0 0 0 14.796-12.534l21.668-130.011c13.621 13.899 32.584 22.545 53.536 22.545 8.284 0 15-6.716 15-15s-6.716-15-15-15c-19.555 0-36.228-12.542-42.42-30h164.42c8.284 0 15-6.716 15-15v-180c0-8.284-6.716-15-15-15h-272c-24.813 0-45 20.187-45 45v120c0 18.746 11.526 34.844 27.86 41.6zm64.433 153.4H32.71l25-150h59.586zm-47.293-180c-8.271 0-15-6.729-15-15v-45h105c2.329 0 4.625-.542 6.708-1.583l56.833-28.417h103.459v90zm0-150h257v30h-107c-2.329 0-4.625.542-6.708 1.583l-56.833 28.417H30.003v-45c0-8.271 6.729-15 15-15zM422.003 106.002v120c0 8.284 6.716 15 15 15s15-6.716 15-15v-120c0-8.284-6.716-15-15-15s-15 6.715-15 15zM362.003 136.002v60c0 8.284 6.716 15 15 15s15-6.716 15-15v-60c0-8.284-6.716-15-15-15s-15 6.715-15 15zM497.003 61.002c-8.284 0-15 6.716-15 15v180c0 8.284 6.716 15 15 15s15-6.716 15-15v-180c0-8.285-6.715-15-15-15z" fill="#000000" data-original="#000000"></path></g></svg>