<svg xmlns="http://www.w3.org/2000/svg" version="1.1" xmlns:xlink="http://www.w3.org/1999/xlink" xmlns:svgjs="http://svgjs.com/svgjs" width="512" height="512" x="0" y="0" viewBox="0 0 512 512" style="enable-background:new 0 0 512 512" xml:space="preserve"><g><path d="m79.442 480.587-48.028-48.028c-21.885-21.885-21.885-57.367 0-79.251l212.784-212.784c21.885-21.885 57.367-21.885 79.251 0l48.028 48.028c21.885 21.885 21.885 57.367 0 79.251L158.693 480.587c-21.885 21.884-57.367 21.884-79.251 0z" style="stroke-width:30;stroke-linecap:round;stroke-linejoin:round;stroke-miterlimit:10;" fill="none" stroke="#FFFFFF" stroke-width="30" stroke-linecap="round" stroke-linejoin="round" stroke-miterlimit="10" data-original="#FFFFFF"></path><circle cx="283.823" cy="228.177" r="30" style="stroke-width:30;stroke-linecap:round;stroke-linejoin:round;stroke-miterlimit:10;" fill="none" stroke="#FFFFFF" stroke-width="30" stroke-linecap="round" stroke-linejoin="round" stroke-miterlimit="10" data-original="#FFFFFF"></circle><path d="M203.92 265.654h0M246.346 308.08h0M161.494 308.08h0M203.92 350.506h0M119.067 350.506l42.427 42.427M76.641 392.933l42.426 42.426M372.255 77.365c15.959.007 31.925 6.094 44.106 18.274s18.267 28.147 18.274 44.106M372.255 15c31.925-.007 63.85 12.173 88.211 36.534 24.361 24.361 36.541 56.286 36.534 88.211" style="stroke-width:30;stroke-linecap:round;stroke-linejoin:round;stroke-miterlimit:10;" fill="none" stroke="#FFFFFF" stroke-width="30" stroke-linecap="round" stroke-linejoin="round" stroke-miterlimit="10" data-original="#FFFFFF"></path></g></svg>