<svg xmlns="http://www.w3.org/2000/svg" version="1.1" xmlns:xlink="http://www.w3.org/1999/xlink" xmlns:svgjs="http://svgjs.com/svgjs" width="512" height="512" x="0" y="0" viewBox="0 0 512 512" style="enable-background:new 0 0 512 512" xml:space="preserve"><g><path d="M501.893 465.289 367.926 25.597C363.261 10.287 349.393 0 333.416 0H187.531c-15.668 0-29.455 10.029-34.307 24.955L10.27 464.647c-3.573 10.99-1.653 23.13 5.135 32.475C22.273 506.577 32.905 512 44.577 512h422.806c11.537 0 22.098-5.324 28.974-14.607 6.897-9.312 8.915-21.014 5.536-32.104zm-246.251-25.952c-8.284 0-15 6.716-15 15V482H121.268L224.069 30h16.63v27.663c0 8.284 6.716 15 15 15s15-6.716 15-15V30h26.856l102.801 452H270.642v-27.663c0-8.284-6.716-15-15-15zM39.677 479.491c-.693-.955-1.729-2.947-.878-5.568L181.755 34.23c.822-2.53 3.144-4.23 5.776-4.23h5.77l-102.8 452H44.577c-2.677 0-4.219-1.572-4.9-2.509zm432.572.046c-.681.92-2.219 2.463-4.866 2.463h-36.26L328.322 30h5.094c2.686 0 5.021 1.745 5.813 4.341l133.967 439.691c.793 2.607-.252 4.568-.947 5.505z" fill="#000000" data-original="#000000"></path><path d="M270.698 364.337c0-8.284-6.716-15-15-15s-15 6.716-15 15V407c0 8.284 6.716 15 15 15s15-6.716 15-15zM255.642 333c8.284 0 15-6.716 15-15v-42.663c0-8.284-6.716-15-15-15s-15 6.716-15 15V318c0 8.284 6.716 15 15 15zM255.67 172.337c-8.284 0-15 6.716-15 15V230c0 8.284 6.716 15 15 15s15-6.716 15-15v-42.663c0-8.284-6.716-15-15-15zM255.613 157c8.284 0 15-6.716 15-15v-40.663c0-8.284-6.716-15-15-15s-15 6.716-15 15V142c0 8.284 6.716 15 15 15z" fill="#000000" data-original="#000000"></path></g></svg>