<svg xmlns="http://www.w3.org/2000/svg" version="1.1" xmlns:xlink="http://www.w3.org/1999/xlink" xmlns:svgjs="http://svgjs.com/svgjs" width="512" height="512" x="0" y="0" viewBox="0 0 512 512" style="enable-background:new 0 0 512 512" xml:space="preserve"><g><path d="M489.385 184.601c-12.393-13.041-28.236-21.561-45.61-24.723-4.378-28.797-29.305-50.933-59.304-50.933-4.218 0-8.405.444-12.493 1.313-8.254-22.063-26.842-45.456-55.496-69.783-26.043-22.109-50.948-36.895-51.995-37.513a14.953 14.953 0 0 0-15.207 0c-1.06.626-26.265 15.59-52.477 37.924-28.544 24.321-47.013 47.693-55.151 69.738a60.03 60.03 0 0 0-14.121-1.679c-30 0-54.927 22.136-59.304 50.933-17.375 3.162-33.218 11.682-45.61 24.722C7.21 200.811-.799 221.991.063 244.24c.913 23.499 11.963 45.528 29.962 60.4v63.936c0 24.037 9.359 46.64 26.362 63.655 13.855 13.845 31.423 22.619 50.45 25.397v38.536c0 1.549.236 3.042.673 4.447 1.893 6.087 7.57 10.506 14.28 10.506 8.257 0 14.952-6.694 14.952-14.952v-75.087c.021-66.229 53.908-120.103 120.141-120.103 32.095 0 62.263 12.498 84.951 35.195 22.674 22.665 35.169 52.802 35.19 84.867v75.129c0 8.258 6.694 14.952 14.952 14.952 5.161 0 9.712-2.615 12.399-6.593a14.883 14.883 0 0 0 2.554-8.36V457.33c18.346-3.053 35.262-11.687 48.692-25.107 16.996-17.008 26.355-39.611 26.355-63.647V304.64c17.999-14.872 29.048-36.902 29.962-60.402.861-22.246-7.148-43.426-22.553-59.637zm-232.503 86.47c-48.449 0-91.6 23.088-119.051 58.833 7.917-58.632 58.284-103.984 119.051-103.984 60.709 0 111.037 45.265 119.028 103.816a152.253 152.253 0 0 0-12.932-14.712c-28.332-28.344-66.011-43.953-106.096-43.953zM226.843 147.21a6 6 0 0 1-2.033-4.559c0-3.343 2.669-6.062 5.949-6.062.549 0 1.07.07 1.548.208a14.948 14.948 0 0 0 18.769-11.225c.591-2.751 3.038-4.749 5.817-4.749 2.78 0 5.226 1.997 5.817 4.748a14.96 14.96 0 0 0 6.945 9.694 14.957 14.957 0 0 0 11.826 1.531 5.562 5.562 0 0 1 1.547-.208c3.28 0 5.949 2.72 5.949 6.062a5.998 5.998 0 0 1-2.034 4.559 14.952 14.952 0 0 0-.01 22.403 6.03 6.03 0 0 1 2.044 4.569c0 3.347-2.668 6.069-5.949 6.069-.55 0-1.071-.07-1.547-.208a14.951 14.951 0 0 0-18.77 11.223c-.592 2.753-3.039 4.751-5.818 4.751s-5.226-1.998-5.818-4.752a14.952 14.952 0 0 0-18.769-11.222 5.575 5.575 0 0 1-1.548.208c-3.28 0-5.949-2.723-5.949-6.069a6.027 6.027 0 0 1 2.044-4.569 14.953 14.953 0 0 0-.01-22.402zm255.213 95.869c-.651 16.734-9.379 32.304-23.347 41.652a14.95 14.95 0 0 0-6.637 12.426v71.419c0 16.053-6.252 31.149-17.596 42.502-7.742 7.736-17.219 13.097-27.548 15.732l-.001-80.748c0-66.376-43.328-122.814-103.183-142.542 9.151-6.524 15.136-17.241 15.136-29.338a36.056 36.056 0 0 0-3.629-15.763 36.047 36.047 0 0 0 3.629-15.768c0-18.603-14.153-33.953-32.225-35.783-6.531-9.692-17.612-15.948-29.762-15.948s-23.231 6.255-29.762 15.948c-18.072 1.831-32.225 17.18-32.225 35.783a36.058 36.058 0 0 0 3.629 15.768 36.056 36.056 0 0 0-3.629 15.763c0 12.094 5.982 22.808 15.129 29.333-59.863 19.723-103.198 76.165-103.198 142.547v81.158c-11.012-2.455-21.131-7.966-29.305-16.134-11.352-11.36-17.603-26.457-17.603-42.51v-71.419c0-4.99-2.49-9.651-6.637-12.426-13.97-9.348-22.698-24.918-23.348-41.65-.547-14.116 4.548-27.569 14.348-37.881 10.118-10.648 23.829-16.611 38.606-16.792a14.956 14.956 0 0 0 10.934-4.953c3.788-3.909 4.139-9.417 3.614-14.523 0-16.588 13.495-30.082 30.083-30.082a29.96 29.96 0 0 1 16.364 4.842 14.954 14.954 0 0 0 23.03-11.109c3.516-36.646 60.435-80.24 89.957-99.171 29.252 18.763 85.651 61.915 89.881 98.436a14.95 14.95 0 0 0 22.458 11.153 29.986 29.986 0 0 1 15.251-4.151c16.588 0 30.082 13.495 30.082 30.082-.525 5.104-.172 10.618 3.616 14.524a14.951 14.951 0 0 0 10.933 4.952c14.777.181 28.488 6.145 38.606 16.793 9.8 10.311 14.896 23.764 14.349 37.878z" fill="#ffffff" data-original="#000000"></path><path d="M76.753 226.027c-8.257 0-14.957 6.699-14.957 14.957s6.699 14.957 14.957 14.957 14.957-6.7 14.957-14.957c0-8.258-6.699-14.957-14.957-14.957zM136.804 173.501c-8.258 0-14.957 6.699-14.957 14.957 0 8.257 6.699 14.957 14.957 14.957 8.257 0 14.957-6.699 14.957-14.957s-6.699-14.957-14.957-14.957zM437.011 226.027c-8.258 0-14.957 6.699-14.957 14.957s6.699 14.957 14.957 14.957 14.957-6.7 14.957-14.957c0-8.258-6.699-14.957-14.957-14.957z" fill="#ffffff" data-original="#000000"></path><circle cx="376.96" cy="188.458" r="14.957" fill="#ffffff" data-original="#000000"></circle></g></svg>