<svg xmlns="http://www.w3.org/2000/svg" version="1.1" xmlns:xlink="http://www.w3.org/1999/xlink" xmlns:svgjs="http://svgjs.com/svgjs" width="512" height="512" x="0" y="0" viewBox="0 0 32 32" style="enable-background:new 0 0 512 512" xml:space="preserve" class=""><g><path d="m29.388 13.867-5.969 5.819 1.41 8.213a1 1 0 0 1-1.452 1.054L16 25.075l-7.377 3.878A1 1 0 0 1 7.172 27.9l1.409-8.213-5.969-5.819a1 1 0 0 1 .555-1.705l8.247-1.2 3.689-7.473a1.041 1.041 0 0 1 1.794 0l3.688 7.474 8.248 1.2a1 1 0 0 1 .555 1.704z" fill="#EA142E" data-original="#000000"></path></g></svg>