<svg xmlns="http://www.w3.org/2000/svg" version="1.1" xmlns:xlink="http://www.w3.org/1999/xlink" xmlns:svgjs="http://svgjs.com/svgjs" width="512" height="512" x="0" y="0" viewBox="0 0 512 512" style="enable-background:new 0 0 512 512" xml:space="preserve"><g><path d="M390 352.099h46v-46M76 306.099v46h46" style="stroke-width:30;stroke-linecap:round;stroke-linejoin:round;stroke-miterlimit:10;" fill="none" stroke="#FFFFFF" stroke-width="30" stroke-linecap="round" stroke-linejoin="round" stroke-miterlimit="10" data-original="#FFFFFF"></path><path d="M405.75 79.299H497v331.6H15v-331.6h91.25M76.265 481.901c47.02-44.04 110.23-71 179.73-71s132.72 26.97 179.74 71M166.905 90.714v87.407M227.392 90.714v87.407M166.905 132.918h60.487M287.556 92.095v83.355" style="stroke-width:30;stroke-linecap:round;stroke-linejoin:round;stroke-miterlimit:10;" fill="none" stroke="#FFFFFF" stroke-width="30" stroke-linecap="round" stroke-linejoin="round" stroke-miterlimit="10" data-original="#FFFFFF"></path><path d="M345.833 134.417c0 23.371-12.971 41.864-33.55 42.224-6.85.12-24.554.187-24.554.187s-.11-30.723-.11-42.504c0-9.676-.061-42.317-.061-42.317h24.023c22.57 0 34.252 19.039 34.252 42.41z" style="stroke-width:30;stroke-linecap:round;stroke-linejoin:round;stroke-miterlimit:10;" fill="none" stroke="#FFFFFF" stroke-width="30" stroke-linecap="round" stroke-linejoin="round" stroke-miterlimit="10" data-original="#FFFFFF"></path><path d="M106.25 30.099h299.5v208h-299.5z" style="stroke-width:30;stroke-linecap:round;stroke-linejoin:round;stroke-miterlimit:10;" fill="none" stroke="#FFFFFF" stroke-width="30" stroke-linecap="round" stroke-linejoin="round" stroke-miterlimit="10" data-original="#FFFFFF"></path></g></svg>