<svg xmlns="http://www.w3.org/2000/svg" version="1.1" xmlns:xlink="http://www.w3.org/1999/xlink" xmlns:svgjs="http://svgjs.com/svgjs" width="512" height="512" x="0" y="0" viewBox="0 0 512 512" style="enable-background:new 0 0 512 512" xml:space="preserve"><g><path d="M105 90h107.509c6.968 34.192 37.271 60 73.491 60h150c8.284 0 15-6.716 15-15v-15h46c8.284 0 15-6.716 15-15V45c0-8.284-6.716-15-15-15h-46V15c0-8.284-6.716-15-15-15H286c-36.22 0-66.522 25.808-73.491 60H105C47.103 60 0 107.103 0 165s47.103 105 105 105h301c41.196 0 76 34.804 76 76s-34.804 76-76 76H299.491c-6.968-34.192-37.271-60-73.491-60H75c-8.284 0-15 6.716-15 15v15H15c-8.284 0-15 6.716-15 15v60c0 8.284 6.716 15 15 15h45v15c0 8.284 6.716 15 15 15h151c36.22 0 66.522-25.808 73.491-60H406c57.969 0 106-47.857 106-106 0-57.969-47.857-106-106-106H105c-41.355 0-75-33.645-75-75s33.645-75 75-75zm346-30h31v30h-31V60zM286 30h135v90H286c-24.813 0-45-20.187-45-45s20.187-45 45-45zM60 452H30v-30h30v30zm166 30H90v-90h136c24.813 0 45 20.187 45 45s-20.187 45-45 45z" fill="#ffffff" data-original="#000000"></path><path d="M226 422h-91c-8.284 0-15 6.716-15 15s6.716 15 15 15h91c8.284 0 15-6.716 15-15s-6.716-15-15-15zM376 60h-90c-8.284 0-15 6.716-15 15s6.716 15 15 15h90c8.284 0 15-6.716 15-15s-6.716-15-15-15z" fill="#ffffff" data-original="#000000"></path></g></svg>