<svg xmlns="http://www.w3.org/2000/svg" version="1.1" xmlns:xlink="http://www.w3.org/1999/xlink" xmlns:svgjs="http://svgjs.com/svgjs" width="512" height="512" x="0" y="0" viewBox="0 0 147.586 147.586" style="enable-background:new 0 0 512 512" xml:space="preserve"><g><path d="M48.712 94.208a7.5 7.5 0 0 0 10.607 10.606c7.98-7.98 20.967-7.98 28.947 0 1.465 1.464 3.385 2.197 5.304 2.197s3.839-.732 5.304-2.197a7.5 7.5 0 0 0 0-10.606c-13.83-13.83-36.332-13.83-50.162 0z" style="" fill="#FFFFFF" data-original="#FFFFFF"></path><path d="M26.73 72.225a7.5 7.5 0 0 0 10.607 10.606c20.102-20.102 52.811-20.102 72.912 0 1.465 1.464 3.385 2.197 5.304 2.197s3.839-.732 5.304-2.197a7.5 7.5 0 0 0 0-10.606c-25.951-25.95-68.176-25.95-94.127 0z" style="" fill="#FFFFFF" data-original="#FFFFFF"></path><path d="M145.39 47.692c-39.479-39.479-103.715-39.479-143.193 0a7.5 7.5 0 0 0 10.607 10.606c16.29-16.291 37.95-25.262 60.989-25.262s44.699 8.972 60.989 25.262c1.465 1.464 3.385 2.197 5.304 2.197s3.839-.732 5.304-2.197a7.5 7.5 0 0 0 0-10.606z" style="" fill="#FFFFFF" data-original="#FFFFFF"></path><circle cx="73.793" cy="121.272" r="8.231" style="" fill="#FFFFFF" data-original="#FFFFFF"></circle></g></svg>