<svg xmlns="http://www.w3.org/2000/svg" version="1.1" xmlns:xlink="http://www.w3.org/1999/xlink" xmlns:svgjs="http://svgjs.com/svgjs" width="512" height="512" x="0" y="0" viewBox="0 0 64 64" style="enable-background:new 0 0 512 512" xml:space="preserve" class=""><g><path d="M14 49a1 1 0 0 0 .707-.293l8-8-1.414-1.414L14 46.586l-3.293-3.293-1.414 1.414 4 4A1 1 0 0 0 14 49Z" fill="#ea142e" data-original="#000000"></path><path d="M9.263 60.676A1 1 0 0 0 10 61h48a1 1 0 0 0 1-1.087l-4-46A1 1 0 0 0 54 13h-9v-1a5.006 5.006 0 0 0-5-5h-1.1A5.009 5.009 0 0 0 34 3h-6a5.006 5.006 0 0 0-5 5v5h-9a1 1 0 0 0-1 .914l-1.745 20.177a10.972 10.972 0 0 0-1.641 18.848L9 59.913a1 1 0 0 0 .263.763ZM56.909 59h-3.992l-3.826-44h3.992ZM43 12v1h-4V9h1a3 3 0 0 1 3 3Zm-6 1h-6v-1a3 3 0 0 1 3-3h3ZM25 8a3 3 0 0 1 3-3h6a3 3 0 0 1 2.816 2H34a5.006 5.006 0 0 0-5 5v1h-4ZM7 44a9 9 0 1 1 9 9 9.01 9.01 0 0 1-9-9Zm9 11a11 11 0 1 0-2.673-21.658L14.917 15H23v4.184a3 3 0 1 0 2 0V15h12v4.184a3 3 0 1 0 2 0V15h8.083l3.826 44H11.091l.434-4.961A10.919 10.919 0 0 0 16 55Zm9-33a1 1 0 1 1-1-1 1 1 0 0 1 1 1Zm14 0a1 1 0 1 1-1-1 1 1 0 0 1 1 1Z" fill="#ea142e" data-original="#000000"></path></g></svg>