<svg xmlns="http://www.w3.org/2000/svg" version="1.1" xmlns:xlink="http://www.w3.org/1999/xlink" xmlns:svgjs="http://svgjs.com/svgjs" width="512" height="512" x="0" y="0" viewBox="0 0 512 512" style="enable-background:new 0 0 512 512" xml:space="preserve" class=""><g><path d="M352.16 290.462a26.531 26.531 0 0 0-37.537 0l-.091.092c-8.658 8.949-22.092 22.763-27.283 27.952-32.466-1.474-59.532-27.672-60.347-58.865 3.2-4.393 15.121-15.6 20.432-20.6 5.378-5.058 7.368-6.962 8.436-8.269a26.594 26.594 0 0 0-.389-37.149l-45.967-45.991a26.365 26.365 0 0 0-18.767-7.78 26.368 26.368 0 0 0-18.522 7.532c-24.629 21.075-34.64 50.823-28.949 86.047 4.856 30.057 21.123 63.031 45.8 92.845 23.49 28.377 52.354 50.878 79.192 61.731a8.016 8.016 0 1 0 6.01-14.862C221.631 351.9 167.809 285.418 159 230.878c-4.835-29.92 3.153-53.967 23.739-71.472l.474-.438a10.448 10.448 0 0 1 7.433-3.08 10.443 10.443 0 0 1 7.431 3.081l45.966 45.991a10.539 10.539 0 0 1 0 14.882l-.559.559-.232.348c-.917.993-4.087 3.973-6.9 6.618-4.911 4.618-11.023 10.366-15.873 15.405-5.269 5.474-10.692 11.11-9.609 16.935.87 40.778 36.868 74.9 79.234 74.895h.287c3.5 0 4.436-.951 10.554-7.139 2.835-2.866 6.574-6.689 10.3-10.511 7.072-7.257 14.1-14.514 14.758-15.2a10.5 10.5 0 0 1 14.82.04l37.552 37.572c4.793 5.029 7.012 10.6 6.593 16.548-.546 7.76-5.516 15.871-13.635 22.255l-.3.248c-14.186 12.316-39.2 9.119-59.308 6.55l-.549-.07a8.016 8.016 0 0 0-2.031 15.9l.549.07c9.492 1.212 19.927 2.546 30.292 2.546a97.671 97.671 0 0 0 11.968-.7v62.888a30.4 30.4 0 0 1-30.363 30.363H131.425a30.4 30.4 0 0 1-30.362-30.363V46.394a30.4 30.4 0 0 1 30.362-30.363h190.164a30.4 30.4 0 0 1 30.363 30.363v54.268a8.016 8.016 0 1 0 16.031 0V46.394A46.446 46.446 0 0 0 321.589 0H131.425a46.446 46.446 0 0 0-46.394 46.394v419.212A46.446 46.446 0 0 0 131.425 512h190.164a46.446 46.446 0 0 0 46.394-46.394V398.73a47.6 47.6 0 0 0 13.408-8.077c11.58-9.162 18.709-21.4 19.568-33.614.741-10.526-3.085-20.491-11.063-28.82z" fill="#ea142e" data-original="#000000" class=""></path><path d="M287.959 184.669c33.882 8.379 64.856 39 73.651 72.8a8.015 8.015 0 1 0 15.514-4.036c-4.965-19.088-16.215-38.016-31.675-53.295s-34.51-26.3-53.641-31.031a8.015 8.015 0 0 0-3.849 15.562zM426.882 251.527c-9.591-64.685-67.726-123.05-132.35-132.875a8.016 8.016 0 1 0-2.409 15.849c57.088 8.679 110.428 62.232 118.9 119.377a8.016 8.016 0 1 0 15.858-2.351zM238.473 478.284a8.016 8.016 0 0 0 0-16.031h-23.931a8.016 8.016 0 1 0 0 16.031zM275.788 38.023h-98.561a8.016 8.016 0 1 0 0 16.031h98.561a8.016 8.016 0 0 0 0-16.031z" fill="#ea142e" data-original="#000000" class=""></path></g></svg>