<svg xmlns="http://www.w3.org/2000/svg" version="1.1" xmlns:xlink="http://www.w3.org/1999/xlink" xmlns:svgjs="http://svgjs.com/svgjs" width="512" height="512" x="0" y="0" viewBox="0 0 512 512" style="enable-background:new 0 0 512 512" xml:space="preserve" class=""><g><path d="M177.853 478.284a8.016 8.016 0 1 0 0-16.031h-23.93a8.016 8.016 0 1 0 0 16.031zM116.608 38.023a8.016 8.016 0 1 0 0 16.031h98.56a8.016 8.016 0 1 0 0-16.031z" fill="#ea142e" data-original="#000000" class=""></path><path d="m487.159 311.857-6.08-17.843a164.268 164.268 0 0 0-39.113-62.814l-60.837-60.837a31.14 31.14 0 0 0-52.424 15.312 33.751 33.751 0 0 0-49.264 26.242 33.743 33.743 0 0 0-44.24 24.039l-69.784-69.783a34.209 34.209 0 1 0-48.379 48.378l124.23 124.23-41.854-15.947a43.916 43.916 0 0 0-46.627 9.97A21.624 21.624 0 0 0 157.576 367l72.641 40.357a266.53 266.53 0 0 0 61.116 24.662v33.59a30.4 30.4 0 0 1-30.363 30.363H70.805a30.4 30.4 0 0 1-30.362-30.363V46.394a30.4 30.4 0 0 1 30.362-30.363H260.97a30.4 30.4 0 0 1 30.363 30.363v100.172a8.016 8.016 0 1 0 16.031 0V46.394A46.446 46.446 0 0 0 260.97 0H70.805a46.446 46.446 0 0 0-46.393 46.394v419.212A46.446 46.446 0 0 0 70.805 512H260.97a46.446 46.446 0 0 0 46.394-46.394v-29.854q8.4 1.685 16.946 2.853l29.994 5.417a8.015 8.015 0 1 0 2.85-15.775l-30.172-5.447-.357-.056A250.386 250.386 0 0 1 238 393.34l-72.64-40.356a5.594 5.594 0 0 1-1.239-8.845 27.864 27.864 0 0 1 29.582-6.326l61.084 23.275A11.631 11.631 0 0 0 267.155 342l-138.78-138.786a18.177 18.177 0 1 1 25.706-25.707l90.1 90.095 3.9 3.9c.2.2.4.379.609.551a8.021 8.021 0 0 0 10.119 0c.21-.172.413-.355.609-.551a8.015 8.015 0 0 0 0-11.335l-3.9-3.9a17.75 17.75 0 1 1 25.166-25.037l8.456 8.264 3.878 3.878a8.016 8.016 0 0 0 11.336-11.336l-3.9-3.9A17.749 17.749 0 1 1 325.6 203.08l11.515 11.331 3.148 3.148a8.016 8.016 0 1 0 11.337-11.335l-3.164-3.164a15.1 15.1 0 0 1 21.358-21.36l60.835 60.836a148.142 148.142 0 0 1 35.276 56.65l6.08 17.843a8.015 8.015 0 0 0 15.174-5.171z" fill="#ea142e" data-original="#000000" class=""></path></g></svg>